<svg xmlns="http://www.w3.org/2000/svg" viewBox="0 0 1920 1080"><defs><style>.cls-1,.cls-5,.cls-7{fill:#fff;}.cls-2,.cls-6{fill:none;}.cls-2,.cls-5,.cls-6,.cls-7,.cls-8{stroke:#000;stroke-width:5px;}.cls-3,.cls-4{font-size:99.42302px;font-family:ArialMT, Arial;}.cls-4{letter-spacing:-0.05518em;}.cls-5,.cls-6{stroke-miterlimit:10;}</style></defs><g id="圖層_2" data-name="圖層 2"><rect class="cls-1" width="1920" height="1080"/></g><g id="圖層_1" data-name="圖層 1"><path id="OR_Gate" data-name="OR Gate" class="cls-2" d="M832.15548,23.74236c26.50428,39.69661,33.0982,69.78075,33.21516,102.70681.14114,39.7377-11.19383,70.64505-32.4844,103.02865,82.76232-.294,209.45878-35.14334,255.58639-101.67246C1041.42418,66.25328,913.59084,23.4531,832.15548,23.74236Z"/><path id="OR_Gate-2" data-name="OR Gate" class="cls-2" d="M806.15564,23.83471c26.50428,39.69661,33.09821,69.78075,33.21516,102.70681.14115,39.7377-11.19383,70.645-32.48439,103.02865"/><text class="cls-3" transform="translate(638.17572 215.45956)">B</text><text class="cls-4" transform="translate(635.9184 112.45956)">A</text><text class="cls-3" transform="translate(1257.43311 164.45956)">C</text><line class="cls-2" x1="717.52637" y1="89.49997" x2="835.67823" y2="89.49997"/><line class="cls-2" x1="1133.52637" y1="126.49997" x2="1251.67823" y2="126.49997"/><text class="cls-3" transform="translate(1815.43311 792.45956)">C</text><line class="cls-2" x1="1688.52637" y1="755.49997" x2="1806.67823" y2="755.49997"/><line class="cls-2" x1="717.52637" y1="174.49997" x2="835.67823" y2="174.49997"/><text class="cls-3" transform="translate(36.17572 784.45959)">B</text><text class="cls-4" transform="translate(34.9184 425.45959)">A</text><polygon class="cls-5" points="407.296 510.602 407.296 703.398 563.71 607 407.296 510.602"/><circle class="cls-5" cx="561.64846" cy="611.0282" r="23.05511"/><polygon class="cls-6" points="1511.323 658.602 1511.323 851.398 1667.737 755 1511.323 658.602"/><circle class="cls-5" cx="1665.67549" cy="759.0282" r="23.05511"/><circle class="cls-5" cx="1113.67549" cy="127.0282" r="23.05511"/><polygon class="cls-5" points="407.296 825.602 407.296 1018.398 563.71 922 407.296 825.602"/><circle class="cls-5" cx="561.64846" cy="926.0282" r="23.05511"/><path class="cls-6" d="M937.8549,747.68888c46.326,0,83.88062-43.7368,83.88062-97.68888s-37.55463-97.68888-83.88062-97.68888V552.304H766.31854V747.696H937.8549"/><path class="cls-6" d="M937.8549,976.68888c46.326,0,83.88062-43.7368,83.88062-97.68888s-37.55463-97.68888-83.88062-97.68888V781.304H766.31854V976.696H937.8549"/><line class="cls-7" x1="1513.32345" y1="755.0282" x2="1426" y2="755.0282"/><path class="cls-7" d="M283.5,393.5"/><path id="OR_Gate-3" data-name="OR Gate" class="cls-2" d="M1169.83567,649.13162c26.36312,39.7905,32.85014,69.89787,32.85014,102.82414,0,39.73795-11.44468,70.60484-32.85014,102.91262,82.76284,0,209.58228-34.39913,255.94592-100.764C1378.95206,692.38558,1251.27155,649.13162,1169.83567,649.13162Z"/><polyline class="cls-5" points="1023.744 649.132 1097.481 649.132 1097.481 718.472 1199.838 718.472"/><polyline class="cls-5" points="1018 887.917 1096.375 887.917 1096.375 792.083 1198.222 792.083"/><circle class="cls-8" cx="251.5" cy="393.5" r="13"/><circle class="cls-8" cx="251.5" cy="752.5" r="13"/><polyline class="cls-6" points="127.361 393.5 645.434 393.5 645.434 854.868 766.319 854.868"/><polyline class="cls-2" points="120.417 752.5 609.306 752.5 609.306 696.25 766.319 696.25"/><line class="cls-6" x1="766.31854" y1="924.02778" x2="584.30556" y2="924.02778"/><line class="cls-6" x1="766.31854" y1="614.02778" x2="584.30556" y2="614.02778"/><polyline class="cls-2" points="251.5 393.5 251.5 614.028 407.296 614.028"/><polyline class="cls-2" points="251.5 752.5 251.5 926.028 407.296 926.028"/><line class="cls-2" x1="741.5" y1="307.5" x2="741.5" y2="425"/><line class="cls-2" x1="782" y1="308" x2="782" y2="425"/><line class="cls-2" x1="822.5" y1="308" x2="822.5" y2="425"/></g></svg>