<svg xmlns="http://www.w3.org/2000/svg" viewBox="0 0 1253 676"><defs><style>.cls-1,.cls-2{fill:#fff;}.cls-2,.cls-3,.cls-4,.cls-7,.cls-8{stroke:#000;stroke-width:5px;}.cls-2,.cls-7,.cls-8{stroke-miterlimit:10;}.cls-3,.cls-7{fill:none;}.cls-5,.cls-6{font-size:99.42302px;font-family:ArialMT, Arial;}.cls-6{letter-spacing:-0.05518em;}</style></defs><g id="圖層_2" data-name="圖層 2"><rect class="cls-1" width="1253" height="676"/></g><g id="圖層_1" data-name="圖層 1"><path class="cls-2" d="M708.731,646.30653c46.326,0,83.88062-43.7368,83.88062-97.68888S755.057,450.92877,708.731,450.92877v-.00716H537.19462V646.31368H708.731" transform="translate(0 0)"/><path id="OR_Gate" data-name="OR Gate" class="cls-3" d="M549.23811,131.16009c26.50428,39.6966,33.0982,69.78075,33.21516,102.7068.14114,39.73771-11.19383,70.645-32.48439,103.02866,82.76231-.294,209.45877-35.14334,255.58638-101.67247C758.50681,173.671,630.67347,130.87083,549.23811,131.16009Z" transform="translate(0 0)"/><path id="OR_Gate-2" data-name="OR Gate" class="cls-3" d="M523.23827,131.25244c26.50428,39.69661,33.09821,69.78075,33.21516,102.70681.14115,39.7377-11.19383,70.645-32.48439,103.02865" transform="translate(0 0)"/><line class="cls-3" x1="299.5" y1="191.5" x2="549.02846" y2="191.5"/><line class="cls-3" x1="299.5" y1="276.5" x2="549.02846" y2="276.5"/><circle class="cls-4" cx="411.5" cy="191.5" r="13"/><circle class="cls-4" cx="360.5" cy="276.5" r="13"/><text class="cls-5" transform="translate(983.72827 248.13562)">Sum</text><text class="cls-5" transform="translate(967.2229 585.13562)">Carry</text><text class="cls-5" transform="translate(189.09546 318.13562)">B</text><text class="cls-6" transform="translate(188.90601 215.13562)">A</text><polyline class="cls-7" points="360.5 289.5 360.5 511.957 536 511.5"/><polyline class="cls-7" points="411.5 191.5 411.5 592.234 536 592.234"/><line class="cls-8" x1="805.55526" y1="235.22308" x2="960" y2="235.22308"/><line class="cls-8" x1="792.55526" y1="548.22308" x2="947" y2="548.22308"/></g></svg>