<svg xmlns="http://www.w3.org/2000/svg" viewBox="0 0 992 1519"><defs><style>.cls-1{fill:#fff;}.cls-2{fill:#c9f6ff;}.cls-10,.cls-3,.cls-5{font-size:50px;}.cls-10,.cls-3,.cls-4,.cls-8{font-family:KozGoPr6N-Regular-90ms-RKSJ-H, Kozuka Gothic Pr6N;}.cls-4,.cls-9{font-size:40px;}.cls-5,.cls-7,.cls-9{font-family:ArialMT, Arial;}.cls-6{letter-spacing:-0.05518em;}.cls-11{fill:none;stroke:#000;stroke-miterlimit:10;stroke-width:5px;}.cls-12{letter-spacing:-0.00999em;}</style></defs><g id="圖層_2" data-name="圖層 2"><rect class="cls-1" width="992" height="1519"/></g><g id="圖層_1" data-name="圖層 1"><rect class="cls-2" x="119" y="46.5" width="278" height="120" rx="51.64697"/><path d="M345.353,48A50.20382,50.20382,0,0,1,395.5,98.147V114.853A50.20383,50.20383,0,0,1,345.353,165H170.647A50.20383,50.20383,0,0,1,120.5,114.853V98.147A50.20382,50.20382,0,0,1,170.647,48H345.353m0-3H170.647A53.147,53.147,0,0,0,117.5,98.147V114.853A53.147,53.147,0,0,0,170.647,168H345.353A53.147,53.147,0,0,0,398.5,114.853V98.147A53.147,53.147,0,0,0,345.353,45Z"/><text class="cls-3" transform="translate(158.00012 124.56641)">指定功能</text><text class="cls-4" transform="translate(415.36737 1019.56641)">燒入</text><rect class="cls-2" x="39.5" y="313.5" width="437" height="120" rx="51.64697"/><path d="M424.853,315A50.20383,50.20383,0,0,1,475,365.14706v16.70588A50.20383,50.20383,0,0,1,424.853,432H91.14706A50.20386,50.20386,0,0,1,41,381.85294V365.14706A50.20386,50.20386,0,0,1,91.14706,315H424.853m0-3H91.14706A53.147,53.147,0,0,0,38,365.14706v16.70588A53.147,53.147,0,0,0,91.14706,435H424.853A53.147,53.147,0,0,0,478,381.85294V365.14706A53.147,53.147,0,0,0,424.853,312Z"/><text class="cls-5" transform="translate(69.02271 386.83619)"><tspan class="cls-6">V</tspan><tspan x="30.59082" y="0">erilog Code(*.v)</tspan></text><path class="cls-2" d="M387.51416,816.5H641.21973a51.64746,51.64746,0,0,1,51.64746,51.64746v16.70508A51.64746,51.64746,0,0,1,641.21973,936.5H387.51465a51.64746,51.64746,0,0,1-51.64746-51.64746V868.147A51.647,51.647,0,0,1,387.51416,816.5Z"/><path d="M641.22021,818a50.20383,50.20383,0,0,1,50.147,50.147V884.853A50.20383,50.20383,0,0,1,641.22021,935H387.51428a50.20388,50.20388,0,0,1-50.147-50.147V868.147A50.20388,50.20388,0,0,1,387.51428,818H641.22021m0-3H387.51428a53.147,53.147,0,0,0-53.147,53.147V884.853A53.147,53.147,0,0,0,387.51428,938H641.22021a53.147,53.147,0,0,0,53.147-53.147V868.147A53.147,53.147,0,0,0,641.22021,815Z"/><text class="cls-3" transform="translate(379.638 890.02515)">位元碼<tspan class="cls-7" x="150" y="0">(*.bit)</tspan></text><path class="cls-2" d="M387.51416,1083.5H641.21973a51.64746,51.64746,0,0,1,51.64746,51.64746v16.70508A51.64746,51.64746,0,0,1,641.21973,1203.5H387.51465a51.64746,51.64746,0,0,1-51.64746-51.64746V1135.147A51.647,51.647,0,0,1,387.51416,1083.5Z"/><path d="M641.22021,1085a50.20381,50.20381,0,0,1,50.147,50.14709v16.70582A50.20381,50.20381,0,0,1,641.22021,1202H387.51428a50.20386,50.20386,0,0,1-50.147-50.14709v-16.70582A50.20386,50.20386,0,0,1,387.51428,1085H641.22021m0-3H387.51428a53.14709,53.14709,0,0,0-53.147,53.14709v16.70582A53.14709,53.14709,0,0,0,387.51428,1205H641.22021a53.147,53.147,0,0,0,53.147-53.14709v-16.70582A53.147,53.147,0,0,0,641.22021,1082Z"/><text class="cls-5" transform="translate(396.30109 1157.02466)">FPGA<tspan class="cls-8" x="136.13281" y="0">電路</tspan></text><text class="cls-9" transform="translate(300.02551 238.73242)">Notepad++</text><text class="cls-9" transform="translate(385.90198 500.93164)"><tspan class="cls-6">V</tspan><tspan x="24.47266" y="0">eriInstrument</tspan><tspan class="cls-10"><tspan x="-96.05469" y="60">虛擬元件配置與連接</tspan></tspan></text><text class="cls-9" transform="translate(560.78143 761.73242)">Xilinx ISE</text><text class="cls-9" transform="translate(578.78143 1018.73242)">Xilinx ISE</text><line class="cls-11" x1="258.00244" y1="168.13965" x2="258.00244" y2="279.82422"/><path d="M258.00244,310c-5.26855-14.199-14.25781-31.81638-23.7793-42.73679l23.7793,8.601,23.77442-8.601C272.25537,278.18362,263.26611,295.801,258.00244,310Z"/><line class="cls-11" x1="514.36969" y1="939.13965" x2="514.36969" y2="1050.82422"/><path d="M514.36969,1081c-5.26855-14.199-14.25781-31.81641-23.7793-42.73682l23.7793,8.60108,23.77441-8.60108C528.62262,1049.18359,519.63336,1066.801,514.36969,1081Z"/><path class="cls-2" d="M274.45117,1344.5H754.28223a51.64746,51.64746,0,0,1,51.64746,51.64746v16.70605A51.64648,51.64648,0,0,1,754.2832,1464.5H274.45166a51.64746,51.64746,0,0,1-51.64746-51.64746V1396.147A51.647,51.647,0,0,1,274.45117,1344.5Z"/><path d="M754.28308,1346a50.204,50.204,0,0,1,50.1471,50.14709v16.70582A50.204,50.204,0,0,1,754.28308,1463H274.45135a50.2039,50.2039,0,0,1-50.147-50.14709v-16.70582A50.2039,50.2039,0,0,1,274.45135,1346H754.28308m0-3H274.45135a53.14709,53.14709,0,0,0-53.147,53.14709v16.70582A53.14709,53.14709,0,0,0,274.45135,1466H754.28308a53.14714,53.14714,0,0,0,53.1471-53.14709v-16.70582A53.14714,53.14714,0,0,0,754.28308,1343Z"/><text class="cls-3" transform="translate(247.4704 1424.02466)"><tspan class="cls-12">V</tspan><tspan x="29.2002" y="0">eriInstrument介面顯示</tspan></text><line class="cls-11" x1="514.36969" y1="1201.13965" x2="514.36969" y2="1312.82422"/><path d="M514.36969,1343c-5.26855-14.199-14.25781-31.81641-23.7793-42.73682l23.7793,8.60108,23.77441-8.60108C528.62262,1311.18359,519.63336,1328.801,514.36969,1343Z"/><path class="cls-2" d="M641.14685,313.5H881.85242a51.64746,51.64746,0,0,1,51.64746,51.64746V381.853a51.647,51.647,0,0,1-51.647,51.647H641.14734a51.64746,51.64746,0,0,1-51.64746-51.64746V365.147A51.647,51.647,0,0,1,641.14685,313.5Z"/><path d="M881.853,315A50.20381,50.20381,0,0,1,932,365.147V381.853A50.20381,50.20381,0,0,1,881.853,432H641.14706A50.20381,50.20381,0,0,1,591,381.853V365.147A50.20381,50.20381,0,0,1,641.14706,315H881.853m0-3H641.14706A53.147,53.147,0,0,0,588,365.147V381.853A53.147,53.147,0,0,0,641.14706,435H881.853A53.147,53.147,0,0,0,935,381.853V365.147A53.147,53.147,0,0,0,881.853,312Z"/><text class="cls-3" transform="translate(618.70056 387.02515)">dpk專案文件</text><line class="cls-11" x1="478" y1="373.5" x2="557.82422" y2="373.5"/><path d="M588,373.5c-14.199,5.26855-31.81641,14.25781-42.73682,23.7793L553.86426,373.5l-8.60108-23.77441C556.18359,359.247,573.801,368.23636,588,373.5Z"/><polyline class="cls-11" points="772.537 437.14 772.537 631.018 514.367 631.018 514.37 676.14 514.37 787.824"/><path d="M514.36969,818c-5.26855-14.199-14.25781-31.81641-23.7793-42.73682l23.7793,8.60108,23.77441-8.60108C528.62262,786.18359,519.63336,803.801,514.36969,818Z"/><polyline class="cls-11" points="258 435.513 260 631.013 516.367 631.013"/></g></svg>