<svg xmlns="http://www.w3.org/2000/svg" viewBox="0 0 1920 1080"><defs><style>.cls-1{fill:#fff;}.cls-11,.cls-2{font-size:219.14705px;}.cls-2{fill:#f15a24;}.cls-14,.cls-2{font-family:ArialMT, Arial;}.cls-3{letter-spacing:-0.05517em;}.cls-3,.cls-7,.cls-9{fill:#000;}.cls-10,.cls-4,.cls-6{fill:#f0f;}.cls-5,.cls-8{fill:blue;}.cls-6,.cls-8{letter-spacing:0em;}.cls-10,.cls-9{letter-spacing:0em;}.cls-11,.cls-13{stroke:#000;stroke-miterlimit:10;}.cls-11{stroke-width:5px;font-family:AdobeMingStd-Light-B5pc-H, Adobe Ming Std;}.cls-12{fill:#c69c6d;}.cls-13{fill:none;stroke-width:10px;}.cls-14{font-size:100px;fill:#8c6239;}.cls-15{letter-spacing:-0.05518em;}</style></defs><g id="圖層_3" data-name="圖層 3"><rect class="cls-1" width="1920" height="1080"/></g><g id="圖層_2" data-name="圖層 2"><text class="cls-2" transform="translate(855.33154 460.27295)">A2<tspan class="cls-3" x="219.14697" y="0"> </tspan><tspan class="cls-4" x="267.94189" y="0">A1</tspan><tspan class="cls-3" x="487.08838" y="0"> </tspan><tspan class="cls-5" x="535.8833" y="0">A0</tspan></text><text class="cls-2" transform="translate(855.33154 712.29297)">B2 <tspan class="cls-6" x="280.03271" y="0">B1</tspan><tspan class="cls-7" x="499.18018" y="0"> </tspan><tspan class="cls-8" x="560.06592" y="0">B0</tspan></text><text class="cls-2" transform="translate(855.33154 981.8418)">S2<tspan class="cls-7" x="219.14697" y="0"> </tspan><tspan class="cls-6" x="280.03271" y="0">S1</tspan><tspan class="cls-7" x="499.18018" y="0"> </tspan><tspan class="cls-8" x="560.06592" y="0">S0</tspan></text><text class="cls-2" transform="translate(530.99365 206.06201)">C2<tspan class="cls-9" x="231.23877" y="0"> </tspan><tspan class="cls-10" x="292.12451" y="0">C1</tspan><tspan class="cls-7" x="523.36377" y="0"> </tspan><tspan class="cls-5" x="584.24951" y="0">C0</tspan></text><text class="cls-11" transform="translate(289.63721 714.9043)">+</text><path class="cls-12" d="M1666,264.88721v234H837v-234h829m10-10H827v254h849v-254Z" transform="translate(0 0)"/><path class="cls-12" d="M1666,519.9436v234H837v-234h829m10-10H827v254h849v-254Z" transform="translate(0 0)"/><line class="cls-13" x1="271" y1="765" x2="1677" y2="765.5"/><text class="cls-14" transform="translate(479.24463 408.55957)">input_<tspan class="cls-15" x="272.46094" y="0">A</tspan></text><text class="cls-14" transform="translate(479.24463 663.61597)">input_B</text></g></svg>