<svg xmlns="http://www.w3.org/2000/svg" viewBox="0 0 1148 1177"><defs><style>.cls-1{fill:#fff;}.cls-11,.cls-2{fill:none;}.cls-11,.cls-2,.cls-9{stroke:#000;stroke-miterlimit:10;}.cls-2{stroke-width:5px;}.cls-3,.cls-4,.cls-8{font-size:30px;}.cls-3,.cls-4,.cls-5,.cls-7,.cls-8{font-family:ArialMT, Arial;}.cls-4{fill:#f0f;}.cls-5,.cls-7{font-size:17.57143px;}.cls-5,.cls-6,.cls-8{fill:#244dc7;}.cls-7{fill:#03fd06;}.cls-10,.cls-9{fill:#6a6a68;}</style></defs><g id="圖層_2" data-name="圖層 2"><rect class="cls-1" width="1148" height="1177"/></g><g id="圖層_1" data-name="圖層 1"><rect class="cls-2" x="328.5" y="419.5" width="562" height="490"/><rect class="cls-2" x="442.5" y="460.5" width="183" height="187"/><rect class="cls-2" x="625.5" y="460.5" width="183" height="187"/><rect class="cls-2" x="442.5" y="793.5" width="366" height="72"/><text class="cls-3" transform="translate(453.11133 519.27637)">SevenSeg.v</text><text class="cls-3" transform="translate(488.11133 763.27637)">3&apos;b000</text><text class="cls-3" transform="translate(313.11133 207.27637)">1&apos;b1</text><text class="cls-3" transform="translate(395.11133 172.27637)">1</text><text class="cls-3" transform="translate(540.11133 966.27637)">4</text><text class="cls-3" transform="translate(543.22266 841.51563)">adder4bits.v</text><text class="cls-4" transform="translate(741.22266 841.51563)">u1</text><text class="cls-4" transform="translate(481.45605 606.51563)">u_digit1</text><text class="cls-4" transform="translate(664.45605 606.51563)">u_digit2</text><text class="cls-3" transform="translate(636.11133 519.27637)">SevenSeg.v</text><text class="cls-3" transform="translate(328.11133 398.27637)">Lab8_1.v</text><line class="cls-2" x1="516.5" y1="1007" x2="516.07458" y2="886.56976"/><path d="M516,865.44684c3.72308,9.92621,10.05908,22.23608,16.7511,29.85675l-16.66669-5.96192-16.62073,6.07947C506.10168,887.75342,512.35059,875.39905,516,865.44684Z"/><line class="cls-2" x1="532.5" y1="938.5" x2="494.5" y2="976.5"/><text class="cls-3" transform="translate(763.11133 966.27637)">4</text><line class="cls-2" x1="739.5" y1="1007" x2="739.07458" y2="886.56976"/><path d="M739,865.44684c3.72308,9.92621,10.05908,22.23608,16.7511,29.85675l-16.66669-5.96192-16.62073,6.07947C729.10168,887.75342,735.35059,875.39905,739,865.44684Z"/><line class="cls-2" x1="755.5" y1="938.5" x2="717.5" y2="976.5"/><text class="cls-3" transform="translate(740.11133 750.27637)">5</text><line class="cls-2" x1="716.5" y1="791" x2="716.07458" y2="670.56976"/><path d="M716,649.44684c3.72308,9.92621,10.05908,22.23608,16.7511,29.85675l-16.66669-5.96192-16.62073,6.07947C706.10168,671.75342,712.35059,659.39905,716,649.44684Z"/><line class="cls-2" x1="732.5" y1="722.5" x2="694.5" y2="760.5"/><text class="cls-3" transform="translate(739.11133 393.27637)">7</text><line class="cls-2" x1="715.5" y1="463" x2="715.07458" y2="342.56973"/><path d="M715,321.44681c3.72308,9.92621,10.05908,22.23608,16.7511,29.85678l-16.66669-5.96192-16.62073,6.0795C705.10168,343.75339,711.35059,331.39906,715,321.44681Z"/><line class="cls-2" x1="731.5" y1="365.5" x2="693.5" y2="403.5"/><line class="cls-2" x1="381.18579" y1="196.77858" x2="434.61639" y2="196.42024"/><path d="M455.739,196.27858c-9.91436,3.75456-22.204,10.1296-29.80346,16.84576l5.90893-16.68551-6.1322-16.60133C433.40112,186.4511,445.77521,192.66077,455.739,196.27858Z"/><line class="cls-2" x1="412.68581" y1="211.77858" x2="394.98779" y2="184.58057"/><text class="cls-3" transform="translate(880.11133 199.27637)">1&apos;b1</text><text class="cls-3" transform="translate(829.11133 162.27637)">1</text><line class="cls-2" x1="866.72229" y1="190.20102" x2="813.29163" y2="190.55936"/><path d="M792.16907,190.701c9.9143-3.75456,22.204-10.1296,29.80346-16.84576l-5.909,16.6855,6.1322,16.60134C814.507,200.5285,802.13281,194.31883,792.16907,190.701Z"/><line class="cls-2" x1="835.22223" y1="175.20102" x2="852.92025" y2="202.39903"/><text class="cls-3" transform="translate(559.11133 392.27637)">7</text><line class="cls-2" x1="536.5" y1="462" x2="536.07458" y2="341.56973"/><path d="M536,320.44681c3.72308,9.92621,10.05908,22.23608,16.7511,29.85678l-16.66669-5.9619-16.62073,6.07948C526.10168,342.75339,532.35059,330.39906,536,320.44681Z"/><line class="cls-2" x1="551.5" y1="364.5" x2="513.5" y2="402.5"/><text class="cls-3" transform="translate(563.11133 710.27637)">3</text><line class="cls-2" x1="535.5" y1="732.99469" x2="535.12347" y2="668.56952"/><path d="M535,647.44684c3.746,9.91754,10.11047,22.21277,16.82007,29.81793l-16.68042-5.92334L518.533,677.45935C525.15326,669.77625,531.3736,657.40747,535,647.44684Z"/><line class="cls-2" x1="555.5" y1="682.5" x2="517.5" y2="720.5"/><g id="_8按鈕" data-name="8按鈕"><g id="按鈕"><text class="cls-5" transform="translate(890.77539 1149.74121)">din</text><rect class="cls-6" x="882" y="1031.125" width="41" height="100.15714"/><rect x="894.88571" y="1085.59643" width="15.22857" height="22.25714"/><rect class="cls-1" x="894.88571" y="1063.33929" width="15.22857" height="22.25714"/><text class="cls-7" transform="translate(889.32129 1052.5127)">ON</text></g><g id="按鈕-2" data-name="按鈕"><text class="cls-5" transform="translate(806.91825 1149.74121)">din</text><rect class="cls-6" x="798.14286" y="1031.125" width="41" height="100.15714"/><rect x="811.02857" y="1085.59643" width="15.22857" height="22.25714"/><rect class="cls-1" x="811.02857" y="1063.33929" width="15.22857" height="22.25714"/><text class="cls-7" transform="translate(805.46415 1052.5127)">ON</text></g><g id="按鈕-3" data-name="按鈕"><text class="cls-5" transform="translate(723.0611 1149.74121)">din</text><rect class="cls-6" x="714.28571" y="1031.125" width="41" height="100.15714"/><rect x="727.17143" y="1085.59643" width="15.22857" height="22.25714"/><rect class="cls-1" x="727.17143" y="1063.33929" width="15.22857" height="22.25714"/><text class="cls-7" transform="translate(721.607 1052.5127)">ON</text></g><g id="按鈕-4" data-name="按鈕"><text class="cls-5" transform="translate(639.20396 1149.74121)">din</text><rect class="cls-6" x="630.42857" y="1031.125" width="41" height="100.15714"/><rect x="643.31429" y="1085.59643" width="15.22857" height="22.25714"/><rect class="cls-1" x="643.31429" y="1063.33929" width="15.22857" height="22.25714"/><text class="cls-7" transform="translate(637.74986 1052.5127)">ON</text></g><g id="按鈕-5" data-name="按鈕"><text class="cls-5" transform="translate(555.3468 1149.74121)">din</text><rect class="cls-6" x="546.57143" y="1031.125" width="41" height="100.15714"/><rect x="559.45714" y="1085.59643" width="15.22857" height="22.25714"/><rect class="cls-1" x="559.45714" y="1063.33929" width="15.22857" height="22.25714"/><text class="cls-7" transform="translate(553.8927 1052.5127)">ON</text></g><g id="按鈕-6" data-name="按鈕"><text class="cls-5" transform="translate(471.48969 1149.74121)">din</text><rect class="cls-6" x="462.71429" y="1031.125" width="41" height="100.15714"/><rect x="475.6" y="1085.59643" width="15.22857" height="22.25714"/><rect class="cls-1" x="475.6" y="1063.33929" width="15.22857" height="22.25714"/><text class="cls-7" transform="translate(470.03558 1052.5127)">ON</text></g><g id="按鈕-7" data-name="按鈕"><text class="cls-5" transform="translate(387.63254 1149.74121)">din</text><rect class="cls-6" x="378.85714" y="1031.125" width="41" height="100.15714"/><rect x="391.74286" y="1085.59643" width="15.22857" height="22.25714"/><rect class="cls-1" x="391.74286" y="1063.33929" width="15.22857" height="22.25714"/><text class="cls-7" transform="translate(386.17844 1052.5127)">ON</text></g><g id="按鈕-8" data-name="按鈕"><text class="cls-5" transform="translate(303.77539 1149.74121)">din</text><rect class="cls-6" x="295" y="1031.125" width="41" height="100.15714"/><rect x="307.88571" y="1085.59643" width="15.22857" height="22.25714"/><rect class="cls-1" x="307.88571" y="1063.33929" width="15.22857" height="22.25714"/><text class="cls-7" transform="translate(302.32129 1052.5127)">ON</text></g></g><g id="_7段顯示器" data-name="7段顯示器"><text class="cls-8" transform="translate(690.17816 312.51563)">dout</text><circle class="cls-9" cx="767" cy="277" r="8"/><path class="cls-10" d="M751.67,189.04a13.70273,13.70273,0,0,1,6.82,11.76v53.85a13.46955,13.46955,0,0,1-3.37,8.91l-13.44-13.45a7.054,7.054,0,0,0,1.82-4.75V204.64a7.15154,7.15154,0,0,0-4.43-6.61l12.59-9A.00979.00979,0,0,1,751.67,189.04Z"/><path class="cls-10" d="M758.49,170v7.56a13.34773,13.34773,0,0,1-6.82,11.48.00979.00979,0,0,0-.01-.01l-12.22-7.99v-.01a7.11055,7.11055,0,0,0,3.56-6.17V170Z"/><path class="cls-10" d="M758.49,125v45H743V134.14a7.14425,7.14425,0,0,0-7.14-7.14H693.14a7.14425,7.14425,0,0,0-7.14,7.14V170H670.5V125c0-7.46,6.46-13.51,14.42-13.51h59.15C752.04,111.49,758.49,117.54,758.49,125Z"/><path class="cls-10" d="M741.68,250.11l13.44,13.45a14.64108,14.64108,0,0,1-11.05,4.95H684.92a14.64305,14.64305,0,0,1-11.04-4.94l14.44-13.46a7.10865,7.10865,0,0,0,5.32,2.39h42.72A7.10865,7.10865,0,0,0,741.68,250.11Z"/><path class="cls-10" d="M751.66,189.03l-12.59,9a7.1524,7.1524,0,0,0-2.71-.53H693.64a7.10129,7.10129,0,0,0-2.7.53l-13.6-9,11.49-7.99.24-.32a7.05286,7.05286,0,0,0,4.07,1.28h42.72a7.03108,7.03108,0,0,0,3.58-.97v.01Z"/><path class="cls-10" d="M677.33,189.04a.00979.00979,0,0,1,.01-.01l13.6,9a7.16049,7.16049,0,0,0-4.44,6.61v40.72a7.054,7.054,0,0,0,1.82,4.75l-14.44,13.46a13.5357,13.5357,0,0,1-3.38-8.92V200.8A13.712,13.712,0,0,1,677.33,189.04Z"/><path class="cls-10" d="M689.07,180.72l-.24.32-11.49,7.99a.00979.00979,0,0,0-.01.01,13.35723,13.35723,0,0,1-6.83-11.48V170H686v4.86A7.12058,7.12058,0,0,0,689.07,180.72Z"/><path class="cls-11" d="M739.44,181.03a7.03108,7.03108,0,0,1-3.58.97H693.14a7.15347,7.15347,0,0,1-7.14-7.14V134.14a7.14425,7.14425,0,0,1,7.14-7.14h42.72a7.14425,7.14425,0,0,1,7.14,7.14v40.72A7.11055,7.11055,0,0,1,739.44,181.03Z"/><path class="cls-11" d="M741.68,250.11a7.10865,7.10865,0,0,1-5.32,2.39H693.64a7.1596,7.1596,0,0,1-7.14-7.14V204.64a7.13942,7.13942,0,0,1,7.14-7.14h42.72a7.127,7.127,0,0,1,7.14,7.14v40.72A7.054,7.054,0,0,1,741.68,250.11Z"/><path class="cls-11" d="M751.66,189.04h.01a13.34773,13.34773,0,0,0,6.82-11.48V125c0-7.46-6.45-13.51-14.42-13.51H684.92c-7.96,0-14.42,6.05-14.42,13.51v52.56a13.35723,13.35723,0,0,0,6.83,11.48h.01"/><path class="cls-11" d="M739.44,181.04l12.22,7.99a.00979.00979,0,0,1,.01.01,13.70273,13.70273,0,0,1,6.82,11.76v53.85a13.46955,13.46955,0,0,1-3.37,8.91,14.64108,14.64108,0,0,1-11.05,4.95H684.92a14.64305,14.64305,0,0,1-11.04-4.94,13.5357,13.5357,0,0,1-3.38-8.92V200.8a13.712,13.712,0,0,1,6.83-11.76.00979.00979,0,0,1,.01-.01l11.49-7.99"/><line class="cls-11" x1="677.34" y1="189.03" x2="690.94" y2="198.03"/><line class="cls-11" x1="751.66" y1="189.03" x2="739.07" y2="198.03"/><polyline class="cls-11" points="741.68 250.11 755.12 263.56 755.13 263.57"/><line class="cls-11" x1="688.32" y1="250.11" x2="673.88" y2="263.57"/><polyline class="cls-9" points="741.101 129.296 754.585 115.813 755.324 116.552"/><polyline class="cls-9" points="688.131 129.489 674.648 116.006 675.387 115.266"/></g><g id="_7段顯示器-2" data-name="7段顯示器"><text class="cls-8" transform="translate(509.17816 315.51563)">dout</text><circle class="cls-9" cx="586" cy="280" r="8"/><path class="cls-10" d="M570.67,192.04a13.70273,13.70273,0,0,1,6.82,11.76v53.85a13.46955,13.46955,0,0,1-3.37,8.91l-13.44-13.45a7.054,7.054,0,0,0,1.82-4.75V207.64a7.15154,7.15154,0,0,0-4.43-6.61l12.59-9A.00979.00979,0,0,1,570.67,192.04Z"/><path class="cls-10" d="M577.49,173v7.56a13.34773,13.34773,0,0,1-6.82,11.48.00979.00979,0,0,0-.01-.01l-12.22-7.99v-.01a7.11055,7.11055,0,0,0,3.56-6.17V173Z"/><path class="cls-10" d="M577.49,128v45H562V137.14a7.14425,7.14425,0,0,0-7.14-7.14H512.14a7.14425,7.14425,0,0,0-7.14,7.14V173H489.5V128c0-7.46,6.46-13.51,14.42-13.51h59.15C571.04,114.49,577.49,120.54,577.49,128Z"/><path class="cls-10" d="M560.68,253.11l13.44,13.45a14.64108,14.64108,0,0,1-11.05,4.95H503.92a14.64305,14.64305,0,0,1-11.04-4.94l14.44-13.46a7.10865,7.10865,0,0,0,5.32,2.39h42.72A7.10865,7.10865,0,0,0,560.68,253.11Z"/><path class="cls-10" d="M570.66,192.03l-12.59,9a7.1524,7.1524,0,0,0-2.71-.53H512.64a7.10129,7.10129,0,0,0-2.7.53l-13.6-9,11.49-7.99.24-.32a7.05286,7.05286,0,0,0,4.07,1.28h42.72a7.03108,7.03108,0,0,0,3.58-.97v.01Z"/><path class="cls-10" d="M496.33,192.04a.00979.00979,0,0,1,.01-.01l13.6,9a7.16049,7.16049,0,0,0-4.44,6.61v40.72a7.054,7.054,0,0,0,1.82,4.75l-14.44,13.46a13.5357,13.5357,0,0,1-3.38-8.92V203.8A13.712,13.712,0,0,1,496.33,192.04Z"/><path class="cls-10" d="M508.07,183.72l-.24.32-11.49,7.99a.00979.00979,0,0,0-.01.01,13.35723,13.35723,0,0,1-6.83-11.48V173H505v4.86A7.12058,7.12058,0,0,0,508.07,183.72Z"/><path class="cls-11" d="M558.44,184.03a7.03108,7.03108,0,0,1-3.58.97H512.14a7.15347,7.15347,0,0,1-7.14-7.14V137.14a7.14425,7.14425,0,0,1,7.14-7.14h42.72a7.14425,7.14425,0,0,1,7.14,7.14v40.72A7.11055,7.11055,0,0,1,558.44,184.03Z"/><path class="cls-11" d="M560.68,253.11a7.10865,7.10865,0,0,1-5.32,2.39H512.64a7.1596,7.1596,0,0,1-7.14-7.14V207.64a7.13942,7.13942,0,0,1,7.14-7.14h42.72a7.127,7.127,0,0,1,7.14,7.14v40.72A7.054,7.054,0,0,1,560.68,253.11Z"/><path class="cls-11" d="M570.66,192.04h.01a13.34773,13.34773,0,0,0,6.82-11.48V128c0-7.46-6.45-13.51-14.42-13.51H503.92c-7.96,0-14.42,6.05-14.42,13.51v52.56a13.35723,13.35723,0,0,0,6.83,11.48h.01"/><path class="cls-11" d="M558.44,184.04l12.22,7.99a.00979.00979,0,0,1,.01.01,13.70273,13.70273,0,0,1,6.82,11.76v53.85a13.46955,13.46955,0,0,1-3.37,8.91,14.64108,14.64108,0,0,1-11.05,4.95H503.92a14.64305,14.64305,0,0,1-11.04-4.94,13.5357,13.5357,0,0,1-3.38-8.92V203.8a13.712,13.712,0,0,1,6.83-11.76.00979.00979,0,0,1,.01-.01l11.49-7.99"/><line class="cls-11" x1="496.34" y1="192.03" x2="509.94" y2="201.03"/><line class="cls-11" x1="570.66" y1="192.03" x2="558.07" y2="201.03"/><polyline class="cls-11" points="560.68 253.11 574.12 266.56 574.13 266.57"/><line class="cls-11" x1="507.32" y1="253.11" x2="492.88" y2="266.57"/><polyline class="cls-9" points="560.101 132.296 573.585 118.813 574.324 119.552"/><polyline class="cls-9" points="507.131 132.489 493.648 119.006 494.387 118.266"/></g></g></svg>