<svg xmlns="http://www.w3.org/2000/svg" viewBox="0 0 1920 1080"><defs><style>.cls-1{fill:#fff;}.cls-2{fill:none;stroke:#000;stroke-miterlimit:10;stroke-width:5px;}.cls-3{font-size:70px;font-family:ArialMT, Arial;}.cls-4{letter-spacing:-0.05518em;}</style></defs><g id="圖層_3" data-name="圖層 3"><rect class="cls-1" width="1920" height="1080"/></g><g id="圖層_2" data-name="圖層 2"><rect class="cls-2" x="182.5" y="206.5" width="1553" height="493"/><rect class="cls-2" x="309.5" y="368.5" width="369" height="165"/><text class="cls-3" transform="translate(335.92529 478.23535)">Full<tspan class="cls-4" x="112.79297" y="0"> </tspan><tspan x="128.37891" y="0">Adder</tspan></text><rect class="cls-2" x="806.5" y="370.5" width="369" height="165"/><text class="cls-3" transform="translate(832.92529 480.23535)">Full<tspan class="cls-4" x="112.79297" y="0"> </tspan><tspan x="128.37891" y="0">Adder</tspan></text><rect class="cls-2" x="1301.5" y="370.5" width="369" height="165"/><text class="cls-3" transform="translate(1327.92529 480.23535)">Half<tspan class="cls-4" x="124.48242" y="0"> </tspan><tspan x="140.06836" y="0">Adder</tspan></text><text class="cls-3" transform="translate(326.74096 129.23535)">A2</text><line class="cls-2" x1="369.5" y1="158" x2="369.5" y2="338.82419"/><path d="M369.5,369c-5.26855-14.199-14.25781-31.81641-23.7793-42.73679l23.7793,8.601,23.77441-8.601C383.753,337.18359,374.76364,354.801,369.5,369Z"/><text class="cls-3" transform="translate(451.74097 129.23535)">B2</text><line class="cls-2" x1="494.5" y1="158" x2="494.5" y2="338.82419"/><path d="M494.5,369c-5.26855-14.199-14.25781-31.81641-23.7793-42.73679l23.7793,8.601,23.77441-8.601C508.753,337.18359,499.76364,354.801,494.5,369Z"/><text class="cls-3" transform="translate(511.68726 884.23535)">S2</text><line class="cls-2" x1="554.5" y1="533" x2="554.5" y2="776.82422"/><path d="M554.5,807c-5.26855-14.199-14.25781-31.81641-23.7793-42.73682L554.5,772.86426l23.77441-8.60108C568.75293,775.18359,559.76367,792.801,554.5,807Z"/><text class="cls-3" transform="translate(273.68726 884.23535)">C2</text><text class="cls-3" transform="translate(755.68726 674.23535)">C1</text><text class="cls-3" transform="translate(1257.68726 674.23535)">C0</text><text class="cls-3" transform="translate(1014.68726 888.23535)">S1</text><line class="cls-2" x1="1057.5" y1="537" x2="1057.5" y2="780.82422"/><path d="M1057.5,811c-5.26855-14.199-14.25781-31.81641-23.7793-42.73682l23.7793,8.60108,23.77441-8.60108C1071.75293,779.18359,1062.76367,796.801,1057.5,811Z"/><text class="cls-3" transform="translate(1503.68726 891.23535)">S0</text><line class="cls-2" x1="1546.5" y1="540" x2="1546.5" y2="783.82422"/><path d="M1546.5,814c-5.26855-14.199-14.25781-31.81641-23.7793-42.73682l23.7793,8.60108,23.77441-8.60108C1560.75293,782.18359,1551.76367,799.801,1546.5,814Z"/><text class="cls-3" transform="translate(817.74097 129.23535)">A1</text><line class="cls-2" x1="860.5" y1="158" x2="860.5" y2="338.82419"/><path d="M860.5,369c-5.26855-14.199-14.25781-31.81641-23.7793-42.73679l23.7793,8.601,23.77441-8.601C874.75293,337.18359,865.76367,354.801,860.5,369Z"/><text class="cls-3" transform="translate(953.74097 129.23535)">B2</text><line class="cls-2" x1="996.5" y1="158" x2="996.5" y2="338.82419"/><path d="M996.5,369c-5.26855-14.199-14.25781-31.81641-23.7793-42.73679l23.7793,8.601,23.77441-8.601C1010.75293,337.18359,1001.76367,354.801,996.5,369Z"/><text class="cls-3" transform="translate(1378.74097 129.23535)">A0</text><line class="cls-2" x1="1421.5" y1="158" x2="1421.5" y2="338.82419"/><path d="M1421.5,369c-5.26855-14.199-14.25781-31.81641-23.7793-42.73679l23.7793,8.601,23.77441-8.601C1435.75293,337.18359,1426.76367,354.801,1421.5,369Z"/><text class="cls-3" transform="translate(1498.74097 129.23535)">B0 </text><line class="cls-2" x1="1541.5" y1="158" x2="1541.5" y2="338.82419"/><path d="M1541.5,369c-5.26855-14.199-14.25781-31.81641-23.7793-42.73679l23.7793,8.601,23.77441-8.601C1555.753,337.18359,1546.76364,354.801,1541.5,369Z"/><polyline class="cls-2" points="1363.043 537 1363.043 591.213 1238 591.213 1238 266 1112.319 266 1112.319 338.824"/><path d="M1112.31909,369c-5.26843-14.199-14.25769-31.81641-23.7793-42.73679l23.7793,8.601,23.77442-8.601C1126.57214,337.18359,1117.58276,354.801,1112.31909,369Z"/><polyline class="cls-2" points="868.043 539 868.043 593.213 743 593.213 743 268 617.319 268 617.319 340.824"/><path d="M617.31909,371c-5.26843-14.199-14.25769-31.81641-23.7793-42.73679l23.7793,8.601,23.77442-8.601C631.57214,339.18359,622.58276,356.801,617.31909,371Z"/><polyline class="cls-2" points="434.702 535.5 434.702 591.213 309.5 591.213 309.5 776.824"/><path d="M309.5,807c-5.26855-14.199-14.25781-31.81641-23.7793-42.73682L309.5,772.86426l23.77441-8.60108C323.753,775.18359,314.76364,792.801,309.5,807Z"/></g></svg>