<svg xmlns="http://www.w3.org/2000/svg" viewBox="0 0 1920 1080"><defs><style>.cls-1,.cls-3{fill:#fff;}.cls-2,.cls-4{fill:none;}.cls-2,.cls-3,.cls-4{stroke:#000;stroke-width:5px;}.cls-3,.cls-4{stroke-miterlimit:10;}.cls-5,.cls-6{font-size:99.42302px;font-family:ArialMT, Arial;}.cls-5{letter-spacing:-0.05518em;}</style></defs><g id="圖層_2" data-name="圖層 2"><rect class="cls-1" width="1920" height="1080"/></g><g id="圖層_1" data-name="圖層 1"><polyline class="cls-2" points="907.84 630.459 1025.992 630.459 1026.489 708.356"/><circle class="cls-3" cx="885.03594" cy="631.10771" r="23.05511"/><path class="cls-4" d="M778.64392,728.62553c46.326,0,83.88063-43.7368,83.88063-97.68888s-37.55464-97.68888-83.88063-97.68888v-.00716H607.10756V728.63268H778.64392"/><line class="cls-2" x1="454.3696" y1="631.33221" x2="537.99199" y2="631.33221"/><polyline class="cls-4" points="607.108 687.81 537.535 687.81 537.535 636.937 537.535 581.993 607.108 581.993"/><text class="cls-5" transform="translate(366.88094 660.31572)">A</text><line class="cls-2" x1="907.84012" y1="868.45903" x2="1025.99199" y2="868.45903"/><circle class="cls-3" cx="885.03594" cy="869.10771" r="23.05511"/><path class="cls-4" d="M778.64392,966.62553c46.326,0,83.88063-43.7368,83.88063-97.68888s-37.55464-97.68888-83.88063-97.68888v-.00716H607.10756V966.63268H778.64392"/><line class="cls-2" x1="454.3696" y1="869.33221" x2="537.99199" y2="869.33221"/><polyline class="cls-4" points="607.108 925.81 537.535 925.81 537.535 874.937 537.535 819.993 607.108 819.993"/><text class="cls-6" transform="translate(364.13826 898.31573)">B</text><text class="cls-6" transform="translate(1589.74683 773.41862)">C</text><circle class="cls-3" cx="1422.03594" cy="743.10771" r="23.05511"/><path class="cls-4" d="M1315.64392,840.62553c46.326,0,83.88063-43.7368,83.88063-97.68888s-37.55464-97.68888-83.88063-97.68888v-.00716H1144.10756V840.63268h171.53636"/><line class="cls-2" x1="1026.48891" y1="708.35611" x2="1144.64077" y2="708.35611"/><line class="cls-2" x1="1445.48891" y1="743.35611" x2="1563.64077" y2="743.35611"/><polyline class="cls-2" points="1144.641 793.356 1026.489 793.356 1025.992 868.459"/><path id="OR_Gate" data-name="OR Gate" class="cls-2" d="M871.99791,43.852c26.50428,39.69661,33.09821,69.78075,33.21516,102.70681.14115,39.7377-11.19383,70.64505-32.48439,103.02865,82.76231-.294,209.45877-35.14334,255.58639-101.67246C1081.26662,86.36294,953.43327,43.56276,871.99791,43.852Z"/><text class="cls-6" transform="translate(704.01813 235.56921)">B</text><text class="cls-5" transform="translate(701.7608 132.56921)">A</text><text class="cls-6" transform="translate(1252.27551 184.56921)">C</text><line class="cls-2" x1="783.3688" y1="109.60963" x2="901.52067" y2="109.60963"/><line class="cls-2" x1="1128.3688" y1="146.60963" x2="1246.52067" y2="146.60963"/><line class="cls-2" x1="783.3688" y1="194.60963" x2="901.52067" y2="194.60963"/><line class="cls-2" x1="972.34261" y1="340.54658" x2="972.34261" y2="458.04658"/><line class="cls-2" x1="1012.84261" y1="341.04658" x2="1012.84261" y2="458.04658"/><line class="cls-2" x1="1053.34261" y1="341.04658" x2="1053.34261" y2="458.04658"/></g></svg>