<svg xmlns="http://www.w3.org/2000/svg" viewBox="0 0 2133 1105"><defs><style>.cls-1{fill:#fff;}.cls-2,.cls-5{fill:none;stroke-miterlimit:10;stroke-width:5px;}.cls-2{stroke:#000;}.cls-3{font-size:70px;}.cls-3,.cls-7,.cls-8{font-family:ArialMT, Arial;}.cls-4{letter-spacing:-0.05518em;}.cls-5{stroke:#f0f;}.cls-6,.cls-7{fill:#f0f;}.cls-7,.cls-8{font-size:50px;}</style></defs><g id="圖層_3" data-name="圖層 3"><rect class="cls-1" width="2133" height="1105"/></g><g id="圖層_2" data-name="圖層 2"><rect class="cls-2" x="43.5" y="231.5" width="2007" height="493"/><rect class="cls-2" x="624.5" y="393.5" width="369" height="165"/><text class="cls-3" transform="translate(650.92529 503.23535)">Full<tspan class="cls-4" x="112.79297" y="0"> </tspan><tspan x="128.37891" y="0">Adder</tspan></text><rect class="cls-2" x="1121.5" y="395.5" width="369" height="165"/><text class="cls-3" transform="translate(1147.92529 505.23535)">Full<tspan class="cls-4" x="112.79297" y="0"> </tspan><tspan x="128.37891" y="0">Adder</tspan></text><rect class="cls-2" x="1616.5" y="395.5" width="369" height="165"/><text class="cls-3" transform="translate(1642.92529 505.23535)">Full<tspan class="cls-4" x="112.79297" y="0"> </tspan><tspan x="128.37891" y="0">Adder</tspan></text><text class="cls-3" transform="translate(621.51685 154.61035)">A[2]</text><line class="cls-2" x1="683.72412" y1="183" x2="683.72412" y2="363.82419"/><path d="M683.72412,394c-5.26855-14.199-14.25781-31.81641-23.7793-42.73679l23.7793,8.601,23.77442-8.601C697.97708,362.18359,688.98776,379.801,683.72412,394Z"/><text class="cls-3" transform="translate(783.49 154.61035)">B[2]</text><line class="cls-2" x1="845.75098" y1="183" x2="845.75098" y2="363.82419"/><path d="M845.751,394c-5.26856-14.199-14.25782-31.81641-23.7793-42.73679l23.7793,8.601,23.77441-8.601C860.00391,362.18359,851.01465,379.801,845.751,394Z"/><text class="cls-3" transform="translate(760.15283 912.03534)">Sum[2]</text><line class="cls-2" x1="871.03442" y1="558" x2="871.03442" y2="801.82422"/><path d="M871.03442,832c-5.26855-14.199-14.25781-31.81641-23.77929-42.73682l23.77929,8.60108,23.77442-8.60108C885.28735,800.18359,876.2981,817.801,871.03442,832Z"/><text class="cls-3" transform="translate(1270.15283 912.03534)">Sum[1]</text><line class="cls-2" x1="1381.03442" y1="562" x2="1381.03442" y2="805.82422"/><path d="M1381.03442,836c-5.26855-14.199-14.25781-31.81641-23.77929-42.73682l23.77929,8.60108,23.77442-8.60108C1395.28735,804.18359,1386.2981,821.801,1381.03442,836Z"/><text class="cls-3" transform="translate(1759.15283 912.03534)">Sum[0]</text><line class="cls-2" x1="1870.03442" y1="565" x2="1870.03442" y2="808.82422"/><path d="M1870.03442,839c-5.26855-14.199-14.25781-31.81641-23.77929-42.73682l23.77929,8.60108,23.77442-8.60108C1884.28735,807.18359,1875.2981,824.801,1870.03442,839Z"/><text class="cls-3" transform="translate(1130.51685 154.61035)">A[1]</text><line class="cls-2" x1="1192.72412" y1="183" x2="1192.72412" y2="363.82419"/><path d="M1192.72412,394c-5.26855-14.199-14.25781-31.81641-23.7793-42.73679l23.7793,8.601,23.77442-8.601C1206.97705,362.18359,1197.98779,379.801,1192.72412,394Z"/><text class="cls-3" transform="translate(1288.98999 154.61035)">B[1]</text><line class="cls-2" x1="1351.25098" y1="183" x2="1351.25098" y2="363.82419"/><path d="M1351.251,394c-5.26856-14.199-14.25782-31.81641-23.7793-42.73679l23.7793,8.601,23.77441-8.601C1365.50391,362.18359,1356.51465,379.801,1351.251,394Z"/><text class="cls-3" transform="translate(1609.01685 154.61035)">A[0]</text><line class="cls-2" x1="1671.22412" y1="184" x2="1671.22412" y2="364.82419"/><path d="M1671.22412,395c-5.26855-14.199-14.25781-31.81641-23.7793-42.73679l23.7793,8.601,23.77442-8.601C1685.47705,363.18359,1676.48779,380.801,1671.22412,395Z"/><text class="cls-3" transform="translate(1754.62793 154.61035)">B[0] </text><line class="cls-2" x1="1826.61304" y1="183" x2="1826.61304" y2="363.82419"/><path d="M1826.613,394c-5.26856-14.199-14.25782-31.81641-23.7793-42.73679l23.7793,8.601,23.77441-8.601C1840.866,362.18359,1831.87671,379.801,1826.613,394Z"/><text class="cls-3" transform="translate(2004.74097 154.23535)">Cin </text><polyline class="cls-5" points="1678.043 562 1678.043 616.213 1553 616.213 1553 291 1427.319 291 1427.319 363.824"/><path class="cls-6" d="M1427.31909,394c-5.26843-14.199-14.25769-31.81641-23.7793-42.73679l23.7793,8.601,23.77442-8.601C1441.57214,362.18359,1432.58276,379.801,1427.31909,394Z"/><polyline class="cls-5" points="1183.043 564 1183.043 618.213 1058 618.213 1058 293 932.319 293 932.319 365.824"/><path class="cls-6" d="M932.31915,396c-5.26855-14.199-14.25781-31.81641-23.77929-42.73679l23.77929,8.601,23.77442-8.601C946.57208,364.18359,937.58282,381.801,932.31915,396Z"/><rect class="cls-2" x="117.5" y="394.5" width="369" height="165"/><text class="cls-3" transform="translate(143.92529 504.23535)">Full<tspan class="cls-4" x="112.79297" y="0"> </tspan><tspan x="128.37891" y="0">Adder</tspan></text><text class="cls-3" transform="translate(109.01685 154.61035)">A[3]</text><line class="cls-2" x1="171.22412" y1="184" x2="171.22412" y2="364.82419"/><path d="M171.22412,395c-5.26854-14.199-14.2578-31.81641-23.7793-42.73679l23.7793,8.601,23.77441-8.601C185.47708,363.18359,176.48778,380.801,171.22412,395Z"/><text class="cls-3" transform="translate(260.98999 154.61035)">B[2]</text><line class="cls-2" x1="323.25098" y1="184" x2="323.25098" y2="364.82419"/><path d="M323.251,395c-5.26855-14.199-14.2578-31.81641-23.7793-42.73679l23.7793,8.601,23.7744-8.601C337.50393,363.18359,328.51463,380.801,323.251,395Z"/><text class="cls-3" transform="translate(260.65283 912.03534)">Sum[3]</text><line class="cls-2" x1="371.53443" y1="559" x2="371.53443" y2="802.82422"/><path d="M371.53443,833c-5.26855-14.199-14.2578-31.81641-23.7793-42.73682l23.7793,8.60108,23.7744-8.60108C385.78738,801.18359,376.79808,818.801,371.53443,833Z"/><line class="cls-2" x1="166.5603" y1="558" x2="166.5603" y2="801.82422"/><path d="M166.5603,832c-5.26854-14.199-14.25779-31.81641-23.77929-42.73682l23.77929,8.60108,23.77441-8.60108C180.81326,800.18359,171.824,817.801,166.5603,832Z"/><text class="cls-7" transform="translate(504.68726 674.23535)">Carry[2]</text><text class="cls-7" transform="translate(1009.68726 674.23535)">Carry[0]</text><text class="cls-7" transform="translate(1514.68726 674.23535)">Carry[0]</text><text class="cls-8" transform="translate(1935.68726 619.23535)">b1</text><text class="cls-8" transform="translate(1427.68726 616.23535)">b2</text><text class="cls-8" transform="translate(915.68726 620.23535)">b3</text><text class="cls-8" transform="translate(425.68726 621.23535)">b4</text><text class="cls-3" transform="translate(92.62695 912.03534)">Cout</text><polyline class="cls-5" points="676.043 565 676.043 619.213 551 619.213 551 294 425.319 294 425.319 366.824"/><path class="cls-6" d="M425.31915,397c-5.26855-14.199-14.2578-31.81641-23.7793-42.73679l23.7793,8.601,23.7744-8.601C439.5721,365.18359,430.5828,382.801,425.31915,397Z"/><polyline class="cls-2" points="1930.043 364.824 1930.043 133.5 1985.5 133.5"/><path d="M1930.0426,395c5.26856-14.199,14.25769-31.81641,23.7793-42.73679l-23.7793,8.601-23.77441-8.601C1915.78955,363.18359,1924.77893,380.801,1930.0426,395Z"/></g></svg>