<svg xmlns="http://www.w3.org/2000/svg" viewBox="0 0 2340 1661"><defs><style>.cls-1{fill:#fff;}.cls-12,.cls-15,.cls-17,.cls-2,.cls-9{fill:none;}.cls-11,.cls-2{stroke:#000;}.cls-11,.cls-12,.cls-14,.cls-15,.cls-17,.cls-2,.cls-9{stroke-miterlimit:10;}.cls-12,.cls-14,.cls-15,.cls-17,.cls-2,.cls-9{stroke-width:5px;}.cls-11,.cls-3,.cls-4,.cls-5,.cls-7,.cls-8{font-size:70px;}.cls-11,.cls-3,.cls-4,.cls-5,.cls-6,.cls-7,.cls-8{font-family:ArialMT, Arial;}.cls-16,.cls-4{fill:blue;}.cls-18,.cls-5{fill:#f15a24;}.cls-6{font-size:91.71123px;}.cls-10,.cls-7{fill:#f0f;}.cls-13,.cls-14,.cls-8{fill:lime;}.cls-9{stroke:#f0f;}.cls-12,.cls-14{stroke:lime;}.cls-15{stroke:blue;}.cls-17{stroke:#f15a24;}</style></defs><g id="圖層_3" data-name="圖層 3"><rect class="cls-1" width="2340" height="1661"/></g><g id="圖層_2" data-name="圖層 2"><rect class="cls-2" x="167.5" y="281.93971" width="2092" height="1108.56029"/><text class="cls-3" transform="translate(1919.42944 1579.70203)">Sum[3:0]</text><text class="cls-4" transform="translate(1175.38101 1579.70203)">Sum[7:4]</text><line class="cls-2" x1="2059.5" y1="654" x2="2059.5" y2="1463.82422"/><path d="M2059.5,1494c-5.26855-14.199-14.25781-31.81641-23.7793-42.73682l23.7793,8.60108,23.77441-8.60108C2073.75293,1462.18359,2064.76367,1479.801,2059.5,1494Z"/><text class="cls-5" transform="translate(523.56714 1579.70203)">Cout</text><text class="cls-3" transform="translate(1680.01685 194.61035)">A[3:0]</text><line class="cls-2" x1="1778.5" y1="221" x2="1778.5" y2="401.82419"/><path d="M1778.5,432c-5.26855-14.199-14.25781-31.81641-23.7793-42.73679l23.7793,8.601,23.77441-8.601C1792.75293,400.18359,1783.76367,417.801,1778.5,432Z"/><text class="cls-3" transform="translate(1898.51892 194.61035)">B[3:0] </text><line class="cls-2" x1="1966.69336" y1="223" x2="1966.69336" y2="403.82419"/><path d="M1966.69336,434c-5.26856-14.199-14.25781-31.81641-23.77942-42.73679l23.77942,8.601,23.77429-8.601C1980.94629,402.18359,1971.95691,419.801,1966.69336,434Z"/><text class="cls-3" transform="translate(2213.74097 194.23535)">Cin </text><rect class="cls-2" x="1061.01686" y="435.80227" width="483.4492" height="216.17647"/><text class="cls-6" transform="translate(1083.58692 568.35169)">Adder4bits</text><rect class="cls-2" x="1706.99897" y="435.8027" width="483.4492" height="216.17647"/><text class="cls-6" transform="translate(1729.56903 568.35212)">Adder4bits</text><text class="cls-3" transform="translate(1008.01685 195.11035)">A[7:4]</text><line class="cls-2" x1="1109.5" y1="223" x2="1109.5" y2="403.82419"/><path d="M1109.5,434c-5.26854-14.199-14.2578-31.81641-23.7793-42.73679l23.7793,8.601,23.7744-8.601C1123.753,402.18359,1114.76365,419.801,1109.5,434Z"/><text class="cls-3" transform="translate(1221.33862 194.61035)">B[7:4]</text><text class="cls-7" transform="translate(1441.98999 195.61035)">1’b1</text><text class="cls-8" transform="translate(1530.98999 879.61035)"><tspan xml:space="preserve">Control  Signal</tspan></text><text class="cls-8" transform="translate(1533.98999 962.61035)">Carry</text><text class="cls-4" transform="translate(1423.98999 807.61035)">Sum1</text><text class="cls-4" transform="translate(718.98999 807.61035)">Sum2</text><text class="cls-5" transform="translate(285.98999 800.61035)">Carry2</text><text class="cls-5" transform="translate(922.98999 800.61035)">Carry1</text><line class="cls-2" x1="1304.5" y1="221" x2="1304.5" y2="401.82419"/><path d="M1304.5,432c-5.26855-14.199-14.25781-31.81641-23.7793-42.73679l23.7793,8.601,23.77441-8.601C1318.75293,400.18359,1309.76367,417.801,1304.5,432Z"/><line class="cls-9" x1="1499.5" y1="221" x2="1499.5" y2="401.82419"/><path class="cls-10" d="M1499.5,432c-5.26855-14.199-14.25781-31.81641-23.7793-42.73679l23.7793,8.601,23.77441-8.601C1513.75293,400.18359,1504.76367,417.801,1499.5,432Z"/><text class="cls-3" transform="translate(2111.7644 729.85547)">u1</text><text class="cls-3" transform="translate(1475.68726 735.23535)">u2</text><rect class="cls-2" x="364.01686" y="437.80227" width="483.4492" height="216.17647"/><text class="cls-6" transform="translate(386.58691 570.35169)">Adder4bits</text><text class="cls-3" transform="translate(311.01685 197.11035)">A[7:4]</text><line class="cls-2" x1="412.5" y1="225" x2="412.5" y2="405.82419"/><path d="M412.5,436c-5.26854-14.199-14.2578-31.81641-23.7793-42.73679l23.7793,8.601,23.7744-8.601C426.753,404.18359,417.76365,421.801,412.5,436Z"/><text class="cls-3" transform="translate(524.33862 196.61035)">B[7:4]</text><text class="cls-7" transform="translate(744.98999 197.61035)">1’b0</text><line class="cls-2" x1="607.5" y1="223" x2="607.5" y2="403.82419"/><path d="M607.5,434c-5.26855-14.199-14.25781-31.81641-23.7793-42.73679l23.7793,8.601,23.77441-8.601C621.75293,402.18359,612.76367,419.801,607.5,434Z"/><line class="cls-9" x1="802.5" y1="223" x2="802.5" y2="403.82419"/><path class="cls-10" d="M802.5,434c-5.26855-14.199-14.25781-31.81641-23.7793-42.73679l23.7793,8.601,23.77441-8.601C816.75293,402.18359,807.76367,419.801,802.5,434Z"/><text class="cls-3" transform="translate(778.68726 737.23535)">u3</text><polyline class="cls-2" points="2139.043 404.824 2139.043 173.5 2194.5 173.5"/><path d="M2139.0426,435c5.26856-14.199,14.25769-31.81641,23.7793-42.73679l-23.7793,8.601-23.77441-8.601C2124.78955,403.18359,2133.77893,420.801,2139.0426,435Z"/><rect class="cls-2" x="449.28149" y="947.30835" width="294" height="189"/><text class="cls-11" transform="translate(518.50537 1060.47876)">MUX</text><rect class="cls-2" x="1166.06299" y="947.30835" width="294" height="189"/><text class="cls-11" transform="translate(1235.28711 1060.47876)">MUX</text><polyline class="cls-12" points="1778.5 653.979 1778.5 1059.287 1492.676 1059.287"/><path class="cls-13" d="M1462.5,1059.28711c14.199-5.26856,31.81641-14.25781,42.73682-23.7793l-8.60108,23.7793,8.60108,23.77441C1494.31641,1073.54,1476.699,1064.55078,1462.5,1059.28711Z"/><circle class="cls-14" cx="1778.5" cy="1059.5" r="15"/><polyline class="cls-12" points="1778.5 1059.5 1778.5 1236.5 931.5 1236.5 931.5 1059.287 774.676 1059.287"/><path class="cls-13" d="M744.5,1059.28711c14.199-5.26856,31.81641-14.25781,42.73679-23.7793l-8.601,23.7793,8.601,23.77441C776.31641,1073.54,758.699,1064.55078,744.5,1059.28711Z"/><polyline class="cls-15" points="702.696 653.979 702.696 828.65 1240.5 828.65 1240.5 917.824"/><path class="cls-16" d="M1240.5,948c-5.26855-14.199-14.25781-31.81641-23.7793-42.73682l23.7793,8.60108,23.77441-8.60108C1254.75293,916.18359,1245.76367,933.801,1240.5,948Z"/><line class="cls-15" x1="1390.08508" y1="653.97876" x2="1390.08508" y2="917.82422"/><path class="cls-16" d="M1390.08508,948c-5.26855-14.199-14.25775-31.81641-23.77929-42.73682l23.77929,8.60108,23.77442-8.60108C1404.33807,916.18359,1395.34875,933.801,1390.08508,948Z"/><line class="cls-15" x1="1315.5" y1="1137" x2="1315.5" y2="1464.82422"/><path class="cls-16" d="M1315.5,1495c-5.26855-14.199-14.25781-31.81641-23.7793-42.73682l23.7793,8.60108,23.77441-8.60108C1329.75293,1463.18359,1320.76367,1480.801,1315.5,1495Z"/><polyline class="cls-17" points="1150.806 654 1150.806 856.633 672.5 856.633 672.5 918.324"/><path class="cls-18" d="M672.5,948.5c-5.26855-14.199-14.2578-31.81641-23.7793-42.73682L672.5,914.36426l23.7744-8.60108C686.75294,916.68359,677.76366,934.301,672.5,948.5Z"/><line class="cls-17" x1="522.5" y1="654" x2="522.5" y2="917.82422"/><path class="cls-18" d="M522.5,948c-5.26855-14.199-14.2578-31.81641-23.7793-42.73682L522.5,913.86426l23.7744-8.60108C536.753,916.18359,527.76365,933.801,522.5,948Z"/><line class="cls-17" x1="597.5" y1="1139" x2="597.5" y2="1464.82422"/><path class="cls-18" d="M597.5,1495c-5.26855-14.199-14.2578-31.81641-23.7793-42.73682l23.7793,8.60108,23.7744-8.60108C611.753,1463.18359,602.76365,1480.801,597.5,1495Z"/></g></svg>