<svg xmlns="http://www.w3.org/2000/svg" viewBox="0 0 1407 1560"><defs><style>.cls-1{fill:#fff;}.cls-13,.cls-2{fill:none;}.cls-11,.cls-13,.cls-2{stroke:#000;stroke-miterlimit:10;}.cls-2{stroke-width:5px;}.cls-10,.cls-3,.cls-6{font-size:30px;}.cls-10,.cls-3,.cls-4,.cls-5,.cls-6,.cls-7,.cls-9{font-family:ArialMT, Arial;}.cls-4,.cls-5{font-size:29.9359px;}.cls-5,.cls-6{fill:#f0f;}.cls-7,.cls-9{font-size:17.57143px;}.cls-10,.cls-7,.cls-8{fill:#244dc7;}.cls-9{fill:#03fd06;}.cls-11,.cls-12{fill:#6a6a68;}.cls-14{fill:#bcbcbc;}</style></defs><g id="圖層_2" data-name="圖層 2"><rect class="cls-1" x="0.5" y="0.5" width="1406" height="1559"/><path d="M1406,1V1559H1V1H1406m1-1H0V1560H1407V0Z"/></g><g id="圖層_1" data-name="圖層 1"><rect class="cls-2" x="168.92116" y="294.7497" width="1079.57884" height="969.7503"/><rect class="cls-2" x="469.5" y="401.5" width="183" height="187"/><rect class="cls-2" x="652.5" y="401.5" width="183" height="187"/><rect class="cls-2" x="267.22543" y="1016.40171" width="365.21795" height="71.84615"/><text class="cls-3" transform="translate(480.11133 460.27637)">SevenSeg.v</text><text class="cls-4" transform="translate(312.73926 986.24219)">3&apos;b000</text><text class="cls-3" transform="translate(340.11133 130.27637)">1&apos;b1</text><text class="cls-3" transform="translate(422.11133 95.27637)">1</text><text class="cls-4" transform="translate(367.73291 1064.31445)">adder4bits.v</text><text class="cls-5" transform="translate(565.30957 1064.31445)">u1</text><text class="cls-6" transform="translate(508.45605 547.51563)">u_digit1</text><text class="cls-6" transform="translate(691.45605 547.51563)">u_digit2</text><text class="cls-3" transform="translate(663.11133 460.27637)">SevenSeg.v</text><text class="cls-3" transform="translate(600.09433 730.83466)">MUX</text><text class="cls-3" transform="translate(171.11133 271.27637)">Lab8_2.v </text><text class="cls-3" transform="translate(681.11133 674.27637)">Result</text><text class="cls-3" transform="translate(774.11133 624.27637)">Result[3:0]</text><text class="cls-3" transform="translate(480.11133 826.27637)">value_sum</text><text class="cls-3" transform="translate(1008.11133 1064.27637)">din_low</text><text class="cls-3" transform="translate(358.11133 1240.27637)">din_low</text><text class="cls-3" transform="translate(818.11133 1064.27637)">din_high</text><text class="cls-3" transform="translate(823.11133 1240.27637)">din_high</text><text class="cls-3" transform="translate(399.11133 624.27637)">Result[7:4]</text><line class="cls-2" x1="342.5" y1="1341.99304" x2="342.04156" y2="1109.12305"/><path d="M342,1088c3.70752,9.93213,10.02429,22.25183,16.70435,29.88293l-16.65729-5.98791-16.63019,6.05347C332.06677,1110.29114,338.335,1097.94653,342,1088Z"/><line class="cls-2" x1="358.5" y1="1273.5" x2="320.5" y2="1311.5"/><polyline class="cls-2" points="802.5 1344 802 1202.447 990.5 1202.447 990.5 893.464"/><path d="M990.5,872.34045c3.688,9.93927,9.98047,22.27143,16.64551,29.91571L990.5,896.23547l-16.64209,6.02069C980.523,894.61188,986.81543,882.27972,990.5,872.34045Z"/><line class="cls-2" x1="818.5" y1="1275.5" x2="780.5" y2="1313.5"/><text class="cls-4" transform="translate(564.20117 973.27051)">5</text><text class="cls-4" transform="translate(363.20117 1302.27051)">4</text><text class="cls-4" transform="translate(836.20117 1302.27051)">4</text><line class="cls-2" x1="809.5" y1="945.5" x2="771.5" y2="983.5"/><text class="cls-4" transform="translate(827.20117 972.27051)">4</text><line class="cls-2" x1="1008.5" y1="945.5" x2="970.5" y2="983.5"/><text class="cls-4" transform="translate(1026.20117 972.27051)">4</text><line class="cls-2" x1="540.63995" y1="1013.90704" x2="540.21564" y2="893.77924"/><path d="M540.141,872.65631c3.723,9.92621,10.059,22.23609,16.751,29.85681l-16.66669-5.96191-16.62066,6.07947C530.24268,894.96289,536.49158,882.60858,540.141,872.65631Z"/><line class="cls-2" x1="556.60577" y1="945.55342" x2="518.68697" y2="983.47222"/><text class="cls-3" transform="translate(766.11133 334.27637)">7</text><line class="cls-2" x1="742.5" y1="403.99924" x2="742.0686" y2="271.12296"/><path d="M742,250c3.72021,9.92728,10.05273,22.23895,16.74255,29.86156l-16.66491-5.96666-16.62256,6.07474C732.09534,272.30376,738.34778,259.95122,742,250Z"/><line class="cls-2" x1="758.5" y1="306.5" x2="720.5" y2="344.5"/><line class="cls-2" x1="408.18579" y1="119.77858" x2="461.61639" y2="119.42024"/><path d="M482.739,119.27858c-9.91436,3.75456-22.204,10.1296-29.80346,16.84576l5.90893-16.68551-6.1322-16.60133C460.40112,109.4511,472.77521,115.66077,482.739,119.27858Z"/><line class="cls-2" x1="439.68581" y1="134.77858" x2="421.98779" y2="107.58057"/><text class="cls-3" transform="translate(907.11133 122.27637)">1&apos;b1</text><text class="cls-3" transform="translate(856.11133 85.27637)">1</text><line class="cls-2" x1="893.72229" y1="113.20102" x2="840.29163" y2="113.55936"/><path d="M819.16907,113.701c9.9143-3.75456,22.204-10.1296,29.80346-16.84576l-5.909,16.6855,6.1322,16.60134C841.507,123.5285,829.13281,117.31883,819.16907,113.701Z"/><line class="cls-2" x1="862.22223" y1="98.20102" x2="879.92025" y2="125.39903"/><text class="cls-3" transform="translate(586.11133 333.27637)">7</text><line class="cls-2" x1="563.5" y1="402.9993" x2="563.06903" y2="271.12296"/><path d="M563,250c3.72046,9.9272,10.05316,22.23874,16.74316,29.86121l-16.6651-5.96631L546.45575,279.97C553.09576,272.304,559.348,259.95129,563,250Z"/><line class="cls-2" x1="578.5" y1="305.5" x2="540.5" y2="343.5"/><text class="cls-4" transform="translate(387.5791 933.35547)">3</text><line class="cls-2" x1="360.02673" y1="956.02563" x2="359.65125" y2="891.78333"/><path d="M359.52777,870.66058c3.746,9.91761,10.11047,22.21277,16.82007,29.818l-16.68042-5.92334-16.60657,6.11786C349.681,892.99,355.90137,880.62128,359.52777,870.66058Z"/><line class="cls-2" x1="458.02673" y1="870.98163" x2="457.62598" y2="784.78345"/><path d="M457.52777,763.66064c3.73413,9.922,10.08392,22.2248,16.78442,29.838l-16.67334-5.9433L441.025,793.65344C447.65436,785.97821,453.88947,773.61694,457.52777,763.66064Z"/><text class="cls-3" transform="translate(889.11133 826.27637)">value_in</text><line class="cls-2" x1="867.02673" y1="870.98163" x2="866.62598" y2="784.78345"/><path d="M866.52783,763.66064c3.73413,9.922,10.08386,22.2248,16.7843,29.838l-16.67321-5.9433-16.614,6.09808C856.65442,785.97821,862.88953,773.61694,866.52783,763.66064Z"/><line class="cls-2" x1="379.98397" y1="905.63889" x2="342.06517" y2="943.55769"/><g id="按鈕"><text class="cls-7" transform="translate(915.77539 1475.74121)">din</text><rect class="cls-8" x="907" y="1357.125" width="41" height="100.15714"/><rect x="919.88571" y="1411.59643" width="15.22857" height="22.25714"/><rect class="cls-1" x="919.88571" y="1389.33929" width="15.22857" height="22.25714"/><text class="cls-9" transform="translate(914.32129 1378.5127)">ON</text></g><g id="按鈕-2" data-name="按鈕"><text class="cls-7" transform="translate(831.91824 1475.74121)">din</text><rect class="cls-8" x="823.14286" y="1357.125" width="41" height="100.15714"/><rect x="836.02857" y="1411.59643" width="15.22857" height="22.25714"/><rect class="cls-1" x="836.02857" y="1389.33929" width="15.22857" height="22.25714"/><text class="cls-9" transform="translate(830.46414 1378.5127)">ON</text></g><g id="按鈕-3" data-name="按鈕"><text class="cls-7" transform="translate(748.0611 1475.74121)">din</text><rect class="cls-8" x="739.28571" y="1357.125" width="41" height="100.15714"/><rect x="752.17143" y="1411.59643" width="15.22857" height="22.25714"/><rect class="cls-1" x="752.17143" y="1389.33929" width="15.22857" height="22.25714"/><text class="cls-9" transform="translate(746.607 1378.5127)">ON</text></g><g id="按鈕-4" data-name="按鈕"><text class="cls-7" transform="translate(664.20396 1475.74121)">din</text><rect class="cls-8" x="655.42857" y="1357.125" width="41" height="100.15714"/><rect x="668.31429" y="1411.59643" width="15.22857" height="22.25714"/><rect class="cls-1" x="668.31429" y="1389.33929" width="15.22857" height="22.25714"/><text class="cls-9" transform="translate(662.74986 1378.5127)">ON</text></g><g id="按鈕-5" data-name="按鈕"><text class="cls-7" transform="translate(455.3468 1463.74121)">din</text><rect class="cls-8" x="446.57143" y="1345.125" width="41" height="100.15714"/><rect x="459.45714" y="1399.59643" width="15.22857" height="22.25714"/><rect class="cls-1" x="459.45714" y="1377.33929" width="15.22857" height="22.25714"/><text class="cls-9" transform="translate(453.8927 1366.5127)">ON</text></g><g id="按鈕-6" data-name="按鈕"><text class="cls-7" transform="translate(371.48969 1463.74121)">din</text><rect class="cls-8" x="362.71429" y="1345.125" width="41" height="100.15714"/><rect x="375.6" y="1399.59643" width="15.22857" height="22.25714"/><rect class="cls-1" x="375.6" y="1377.33929" width="15.22857" height="22.25714"/><text class="cls-9" transform="translate(370.03558 1366.5127)">ON</text></g><g id="按鈕-7" data-name="按鈕"><text class="cls-7" transform="translate(287.63254 1463.74121)">din</text><rect class="cls-8" x="278.85714" y="1345.125" width="41" height="100.15714"/><rect x="291.74286" y="1399.59643" width="15.22857" height="22.25714"/><rect class="cls-1" x="291.74286" y="1377.33929" width="15.22857" height="22.25714"/><text class="cls-9" transform="translate(286.17844 1366.5127)">ON</text></g><g id="按鈕-8" data-name="按鈕"><text class="cls-7" transform="translate(203.77539 1463.74121)">din</text><rect class="cls-8" x="195" y="1345.125" width="41" height="100.15714"/><rect x="207.88571" y="1399.59643" width="15.22857" height="22.25714"/><rect class="cls-1" x="207.88571" y="1377.33929" width="15.22857" height="22.25714"/><text class="cls-9" transform="translate(202.32129 1366.5127)">ON</text></g><g id="_7段顯示器" data-name="7段顯示器"><text class="cls-10" transform="translate(717.17816 235.51563)">dout</text><circle class="cls-11" cx="794" cy="200" r="8"/><path class="cls-12" d="M778.67,112.04a13.70273,13.70273,0,0,1,6.82,11.76v53.85a13.46955,13.46955,0,0,1-3.37,8.91l-13.44-13.45a7.054,7.054,0,0,0,1.82-4.75V127.64a7.15154,7.15154,0,0,0-4.43-6.61l12.59-9A.00979.00979,0,0,1,778.67,112.04Z"/><path class="cls-12" d="M785.49,93v7.56a13.34773,13.34773,0,0,1-6.82,11.48.00979.00979,0,0,0-.01-.01l-12.22-7.99v-.01A7.11055,7.11055,0,0,0,770,97.86V93Z"/><path class="cls-12" d="M785.49,48V93H770V57.14A7.14425,7.14425,0,0,0,762.86,50H720.14A7.14425,7.14425,0,0,0,713,57.14V93H697.5V48c0-7.46,6.46-13.51,14.42-13.51h59.15C779.04,34.49,785.49,40.54,785.49,48Z"/><path class="cls-12" d="M768.68,173.11l13.44,13.45a14.64108,14.64108,0,0,1-11.05,4.95H711.92a14.64305,14.64305,0,0,1-11.04-4.94l14.44-13.46a7.10865,7.10865,0,0,0,5.32,2.39h42.72A7.10865,7.10865,0,0,0,768.68,173.11Z"/><path class="cls-12" d="M778.66,112.03l-12.59,9a7.1524,7.1524,0,0,0-2.71-.53H720.64a7.10129,7.10129,0,0,0-2.7.53l-13.6-9,11.49-7.99.24-.32a7.05286,7.05286,0,0,0,4.07,1.28h42.72a7.03108,7.03108,0,0,0,3.58-.97v.01Z"/><path class="cls-12" d="M704.33,112.04a.00979.00979,0,0,1,.01-.01l13.6,9a7.16049,7.16049,0,0,0-4.44,6.61v40.72a7.054,7.054,0,0,0,1.82,4.75l-14.44,13.46a13.5357,13.5357,0,0,1-3.38-8.92V123.8A13.712,13.712,0,0,1,704.33,112.04Z"/><path class="cls-12" d="M716.07,103.72l-.24.32-11.49,7.99a.00979.00979,0,0,0-.01.01,13.35723,13.35723,0,0,1-6.83-11.48V93H713v4.86A7.12058,7.12058,0,0,0,716.07,103.72Z"/><path class="cls-13" d="M766.44,104.03a7.03108,7.03108,0,0,1-3.58.97H720.14A7.15347,7.15347,0,0,1,713,97.86V57.14A7.14425,7.14425,0,0,1,720.14,50h42.72A7.14425,7.14425,0,0,1,770,57.14V97.86A7.11055,7.11055,0,0,1,766.44,104.03Z"/><path class="cls-13" d="M768.68,173.11a7.10865,7.10865,0,0,1-5.32,2.39H720.64a7.1596,7.1596,0,0,1-7.14-7.14V127.64a7.13942,7.13942,0,0,1,7.14-7.14h42.72a7.127,7.127,0,0,1,7.14,7.14v40.72A7.054,7.054,0,0,1,768.68,173.11Z"/><path class="cls-13" d="M778.66,112.04h.01a13.34773,13.34773,0,0,0,6.82-11.48V48c0-7.46-6.45-13.51-14.42-13.51H711.92c-7.96,0-14.42,6.05-14.42,13.51v52.56a13.35723,13.35723,0,0,0,6.83,11.48h.01"/><path class="cls-13" d="M766.44,104.04l12.22,7.99a.00979.00979,0,0,1,.01.01,13.70273,13.70273,0,0,1,6.82,11.76v53.85a13.46955,13.46955,0,0,1-3.37,8.91,14.64108,14.64108,0,0,1-11.05,4.95H711.92a14.64305,14.64305,0,0,1-11.04-4.94,13.5357,13.5357,0,0,1-3.38-8.92V123.8a13.712,13.712,0,0,1,6.83-11.76.00979.00979,0,0,1,.01-.01l11.49-7.99"/><line class="cls-13" x1="704.34" y1="112.03" x2="717.94" y2="121.03"/><line class="cls-13" x1="778.66" y1="112.03" x2="766.07" y2="121.03"/><polyline class="cls-13" points="768.68 173.11 782.12 186.56 782.13 186.57"/><line class="cls-13" x1="715.32" y1="173.11" x2="700.88" y2="186.57"/><polyline class="cls-11" points="768.101 52.296 781.585 38.813 782.324 39.552"/><polyline class="cls-11" points="715.131 52.489 701.648 39.006 702.387 38.266"/></g><g id="_7段顯示器-2" data-name="7段顯示器"><text class="cls-10" transform="translate(536.17816 238.51563)">dout</text><circle class="cls-11" cx="613" cy="203" r="8"/><path class="cls-12" d="M597.67,115.04a13.70273,13.70273,0,0,1,6.82,11.76v53.85a13.46955,13.46955,0,0,1-3.37,8.91l-13.44-13.45a7.054,7.054,0,0,0,1.82-4.75V130.64a7.15154,7.15154,0,0,0-4.43-6.61l12.59-9A.00979.00979,0,0,1,597.67,115.04Z"/><path class="cls-12" d="M604.49,96v7.56a13.34773,13.34773,0,0,1-6.82,11.48.00979.00979,0,0,0-.01-.01l-12.22-7.99v-.01a7.11055,7.11055,0,0,0,3.56-6.17V96Z"/><path class="cls-12" d="M604.49,51V96H589V60.14A7.14425,7.14425,0,0,0,581.86,53H539.14A7.14425,7.14425,0,0,0,532,60.14V96H516.5V51c0-7.46,6.46-13.51,14.42-13.51h59.15C598.04,37.49,604.49,43.54,604.49,51Z"/><path class="cls-12" d="M587.68,176.11l13.44,13.45a14.64108,14.64108,0,0,1-11.05,4.95H530.92a14.64305,14.64305,0,0,1-11.04-4.94l14.44-13.46a7.10865,7.10865,0,0,0,5.32,2.39h42.72A7.10865,7.10865,0,0,0,587.68,176.11Z"/><path class="cls-12" d="M597.66,115.03l-12.59,9a7.1524,7.1524,0,0,0-2.71-.53H539.64a7.10129,7.10129,0,0,0-2.7.53l-13.6-9,11.49-7.99.24-.32a7.05286,7.05286,0,0,0,4.07,1.28h42.72a7.03108,7.03108,0,0,0,3.58-.97v.01Z"/><path class="cls-12" d="M523.33,115.04a.00979.00979,0,0,1,.01-.01l13.6,9a7.16049,7.16049,0,0,0-4.44,6.61v40.72a7.054,7.054,0,0,0,1.82,4.75l-14.44,13.46a13.5357,13.5357,0,0,1-3.38-8.92V126.8A13.712,13.712,0,0,1,523.33,115.04Z"/><path class="cls-12" d="M535.07,106.72l-.24.32-11.49,7.99a.00979.00979,0,0,0-.01.01,13.35723,13.35723,0,0,1-6.83-11.48V96H532v4.86A7.12058,7.12058,0,0,0,535.07,106.72Z"/><path class="cls-13" d="M585.44,107.03a7.03108,7.03108,0,0,1-3.58.97H539.14a7.15347,7.15347,0,0,1-7.14-7.14V60.14A7.14425,7.14425,0,0,1,539.14,53h42.72A7.14425,7.14425,0,0,1,589,60.14v40.72A7.11055,7.11055,0,0,1,585.44,107.03Z"/><path class="cls-13" d="M587.68,176.11a7.10865,7.10865,0,0,1-5.32,2.39H539.64a7.1596,7.1596,0,0,1-7.14-7.14V130.64a7.13942,7.13942,0,0,1,7.14-7.14h42.72a7.127,7.127,0,0,1,7.14,7.14v40.72A7.054,7.054,0,0,1,587.68,176.11Z"/><path class="cls-13" d="M597.66,115.04h.01a13.34773,13.34773,0,0,0,6.82-11.48V51c0-7.46-6.45-13.51-14.42-13.51H530.92c-7.96,0-14.42,6.05-14.42,13.51v52.56a13.35723,13.35723,0,0,0,6.83,11.48h.01"/><path class="cls-13" d="M585.44,107.04l12.22,7.99a.00979.00979,0,0,1,.01.01,13.70273,13.70273,0,0,1,6.82,11.76v53.85a13.46955,13.46955,0,0,1-3.37,8.91,14.64108,14.64108,0,0,1-11.05,4.95H530.92a14.64305,14.64305,0,0,1-11.04-4.94,13.5357,13.5357,0,0,1-3.38-8.92V126.8a13.712,13.712,0,0,1,6.83-11.76.00979.00979,0,0,1,.01-.01l11.49-7.99"/><line class="cls-13" x1="523.34" y1="115.03" x2="536.94" y2="124.03"/><line class="cls-13" x1="597.66" y1="115.03" x2="585.07" y2="124.03"/><polyline class="cls-13" points="587.68 176.11 601.12 189.56 601.13 189.57"/><line class="cls-13" x1="534.32" y1="176.11" x2="519.88" y2="189.57"/><polyline class="cls-11" points="587.101 55.296 600.585 41.813 601.324 42.552"/><polyline class="cls-11" points="534.131 55.489 520.648 42.006 521.387 41.266"/></g><g id="sel"><rect class="cls-14" x="1164" y="1384.13396" width="66" height="70.30435"/><circle cx="1197" cy="1419.28613" r="16"/><circle cx="1221.5" cy="1392.28613" r="6.5"/><circle cx="1172.5" cy="1392.28613" r="6.5"/><circle cx="1172.5" cy="1445.28613" r="6.5"/><circle cx="1221.5" cy="1445.28613" r="6.5"/></g><polygon class="cls-2" points="1066.212 764.968 271.768 764.968 343.5 684.5 988.5 684.5 1066.212 764.968"/><line x1="652.5" y1="686.23583" x2="652.5" y2="642.14894"/><line class="cls-2" x1="652.5" y1="686.23584" x2="652.5" y2="657.23682"/><path d="M652.5,642.14893c2.63428,7.09948,7.12891,15.9082,11.88965,21.3684L652.5,659.2168l-11.88721,4.30053C645.37354,658.05713,649.86816,649.24841,652.5,642.14893Z"/><line x1="744.5" y1="641.99998" x2="744.5" y2="588.14894"/><line class="cls-2" x1="744.5" y1="642" x2="744.5" y2="603.23682"/><path d="M744.5,588.14893c2.63428,7.09948,7.12891,15.9082,11.88965,21.3684L744.5,605.2168l-11.88721,4.30053C737.37354,604.05713,741.86816,595.24841,744.5,588.14893Z"/><line x1="563.5" y1="641.99999" x2="563.5" y2="588.14894"/><line class="cls-2" x1="563.5" y1="642" x2="563.5" y2="603.23682"/><path d="M563.5,588.14893c2.63428,7.09948,7.12891,15.9082,11.88965,21.3684L563.5,605.2168l-11.88721,4.30053C556.37354,604.05713,560.86816,595.24841,563.5,588.14893Z"/><line class="cls-2" x1="473.63254" y1="642.34043" x2="835.5" y2="642.34043"/><line class="cls-2" x1="276.63254" y1="872.34043" x2="638.5" y2="872.34043"/><line class="cls-2" x1="696.63254" y1="870.34043" x2="1058.5" y2="870.34043"/><polyline class="cls-2" points="342.5 1149.851 790.979 1149.851 790.979 893.464"/><path d="M790.97876,872.34045c3.688,9.93927,9.98047,22.27143,16.64551,29.91571l-16.64551-6.02069-16.64209,6.02069C781.00171,894.61188,787.29419,882.27972,790.97876,872.34045Z"/><polyline class="cls-2" points="540.141 1109.371 540.141 1202.521 802 1202.521"/><path d="M540.141,1088.2478c-3.688,9.93933-9.98047,22.27149-16.64551,29.91577l16.64551-6.02063,16.642,6.02063C550.1181,1110.51929,543.82556,1098.18713,540.141,1088.2478Z"/><polyline class="cls-2" points="1197 1341.993 1197 709.355 1036.123 709.483"/><path d="M1015,709.5c9.9364-3.69592,22.26355-9.99817,29.90247-16.66931L1038.895,709.481l6.03394,16.63733C1037.27942,719.45935,1024.94226,713.17664,1015,709.5Z"/></g></svg>