<svg xmlns="http://www.w3.org/2000/svg" viewBox="0 0 1179 1080"><defs><style>.cls-1{fill:#fff;}.cls-2{fill:#c9f6ff;}.cls-3,.cls-5{font-size:50px;}.cls-3,.cls-4,.cls-8{font-family:KozGoPr6N-Regular-90ms-RKSJ-H, Kozuka Gothic Pr6N;}.cls-10,.cls-4{font-size:40px;}.cls-10,.cls-5,.cls-7{font-family:ArialMT, Arial;}.cls-6{letter-spacing:-0.05518em;}.cls-9{fill:none;stroke:#000;stroke-miterlimit:10;stroke-width:5px;}.cls-11{letter-spacing:-0.03711em;}</style></defs><g id="圖層_2" data-name="圖層 2"><rect class="cls-1" width="1179" height="1080"/></g><g id="圖層_1" data-name="圖層 1"><rect class="cls-2" x="106.5" y="46.5" width="278" height="120" rx="51.64697"/><path d="M332.85291,48A50.20385,50.20385,0,0,1,383,98.14709v16.70582A50.20385,50.20385,0,0,1,332.85291,165H158.14709A50.20387,50.20387,0,0,1,108,114.85291V98.14709A50.20387,50.20387,0,0,1,158.14709,48H332.85291m0-3H158.14709A53.14706,53.14706,0,0,0,105,98.14709v16.70582A53.14706,53.14706,0,0,0,158.14709,168H332.85291A53.14706,53.14706,0,0,0,386,114.85291V98.14709A53.14706,53.14706,0,0,0,332.85291,45Z"/><text class="cls-3" transform="translate(145.5 124.56641)">指定功能</text><text class="cls-4" transform="translate(132.5 868.56641)">燒入</text><path class="cls-2" d="M79.14722,313.5H412.85278a51.647,51.647,0,0,1,51.647,51.647v16.70654A51.64648,51.64648,0,0,1,412.85327,433.5H79.14722a51.647,51.647,0,0,1-51.647-51.647V365.147A51.647,51.647,0,0,1,79.14722,313.5Z"/><path d="M412.85291,315A50.20392,50.20392,0,0,1,463,365.14706v16.70588A50.20392,50.20392,0,0,1,412.85291,432H79.147A50.20383,50.20383,0,0,1,29,381.85294V365.14706A50.20383,50.20383,0,0,1,79.147,315H412.85291m0-3H79.147A53.147,53.147,0,0,0,26,365.14706v16.70588A53.147,53.147,0,0,0,79.147,435H412.85291A53.14709,53.14709,0,0,0,466,381.85294V365.14706A53.14709,53.14709,0,0,0,412.85291,312Z"/><text class="cls-5" transform="translate(57.02319 386.83619)"><tspan class="cls-6">V</tspan><tspan x="30.59082" y="0">erilog Code(*.v)</tspan></text><path class="cls-2" d="M132.147,776.50049A51.70584,51.70584,0,0,1,80.5,724.853V708.147a51.70584,51.70584,0,0,1,51.647-51.64746l253.70606.001A51.70563,51.70563,0,0,1,437.5,708.147V724.853a51.70563,51.70563,0,0,1-51.647,51.64648Z"/><path d="M385.853,658A50.20388,50.20388,0,0,1,436,708.147V724.853A50.20388,50.20388,0,0,1,385.853,775H132.14706A50.20387,50.20387,0,0,1,82,724.853V708.147A50.20387,50.20387,0,0,1,132.14706,658H385.853m0-3H132.14706A53.147,53.147,0,0,0,79,708.147V724.853A53.147,53.147,0,0,0,132.14706,778H385.853A53.147,53.147,0,0,0,439,724.853V708.147A53.147,53.147,0,0,0,385.853,655Z"/><text class="cls-3" transform="translate(124.27075 730.02515)">位元碼<tspan class="cls-7" x="150" y="0">(*.bit)</tspan></text><path class="cls-2" d="M119.147,1042.50049A51.70584,51.70584,0,0,1,67.5,990.853V974.147a51.70584,51.70584,0,0,1,51.647-51.64746l253.70606.001A51.70563,51.70563,0,0,1,424.5,974.147V990.853a51.70563,51.70563,0,0,1-51.647,51.64648Z"/><path d="M372.853,924A50.20388,50.20388,0,0,1,423,974.147V990.853A50.20388,50.20388,0,0,1,372.853,1041H119.14706A50.20387,50.20387,0,0,1,69,990.853V974.147A50.20387,50.20387,0,0,1,119.14706,924H372.853m0-3H119.14706A53.147,53.147,0,0,0,66,974.147V990.853A53.147,53.147,0,0,0,119.14706,1044H372.853A53.147,53.147,0,0,0,426,990.853V974.147A53.147,53.147,0,0,0,372.853,921Z"/><text class="cls-5" transform="translate(127.93384 996.02466)">FPGA<tspan class="cls-8" x="136.13281" y="0">電路</tspan></text><path class="cls-2" d="M755.147,313.5h333.70557A51.64746,51.64746,0,0,1,1140.5,365.14746v16.70508A51.64746,51.64746,0,0,1,1088.85254,433.5H755.14746A51.64746,51.64746,0,0,1,703.5,381.85254V365.147A51.647,51.647,0,0,1,755.147,313.5Z"/><path d="M1088.85291,315A50.2039,50.2039,0,0,1,1139,365.147V381.853A50.2039,50.2039,0,0,1,1088.85291,432H755.147A50.20381,50.20381,0,0,1,705,381.853V365.147A50.20381,50.20381,0,0,1,755.147,315h333.70588m0-3H755.147A53.147,53.147,0,0,0,702,365.147V381.853A53.147,53.147,0,0,0,755.147,435h333.70588A53.14709,53.14709,0,0,0,1142,381.853V365.147A53.14709,53.14709,0,0,0,1088.85291,312Z"/><line class="cls-9" x1="466" y1="373.5" x2="671.82422" y2="373.5"/><path d="M702,373.5c-14.199,5.26855-31.81641,14.25781-42.73682,23.7793L667.86426,373.5l-8.60108-23.77441C670.18359,359.247,687.801,368.23636,702,373.5Z"/><text class="cls-10" transform="translate(279.02832 241.73242)">Notepad++</text><text class="cls-10" transform="translate(310.02832 634.73242)">ISE Project Navigator</text><text class="cls-10" transform="translate(301.02832 863.73242)">SMIMS FPG<tspan class="cls-6" x="224.45313" y="0">A</tspan><tspan x="248.92578" y="0" xml:space="preserve"> programmer</tspan></text><text class="cls-10" transform="translate(395.47681 484.73242)">HD<tspan class="cls-11" x="57.77344" y="0">L</tspan><tspan class="cls-6" x="78.53516" y="0"> </tspan><tspan x="87.44141" y="0">Auto</tspan><tspan class="cls-6" x="169.72656" y="0"> </tspan><tspan x="178.63281" y="0">Assign pin</tspan></text><line class="cls-9" x1="245.74097" y1="168.13965" x2="245.74097" y2="279.82422"/><path d="M245.741,310c-5.26856-14.199-14.25782-31.81638-23.7793-42.73679l23.7793,8.601,23.77441-8.601C259.9939,278.18362,251.00464,295.801,245.741,310Z"/><line class="cls-9" x1="245.74097" y1="779.13965" x2="245.74097" y2="890.82422"/><path d="M245.741,921c-5.26856-14.199-14.25782-31.81638-23.7793-42.73679l23.7793,8.601,23.77441-8.601C259.9939,889.18362,251.00464,906.801,245.741,921Z"/><text class="cls-3" transform="translate(780.3252 387.02491)">腳位檔<tspan class="cls-7" x="150" y="0">(*.ucf)</tspan></text><polyline class="cls-9" points="922 435 922 555.468 245.5 555.5 245.5 624.824"/><path d="M245.5,655c-5.26855-14.199-14.25781-31.81641-23.7793-42.73682L245.5,620.86426l23.77441-8.60108C259.75293,623.18359,250.76367,640.801,245.5,655Z"/><line class="cls-9" x1="245.5" y1="555.5" x2="245.5" y2="435"/></g></svg>