<svg xmlns="http://www.w3.org/2000/svg" viewBox="0 0 1388 1020"><defs><style>.cls-1{fill:#fff;}.cls-2,.cls-4{fill:none;stroke-miterlimit:10;stroke-width:5px;}.cls-2{stroke:#000;}.cls-3{font-size:70px;}.cls-3,.cls-6,.cls-7,.cls-8{font-family:ArialMT, Arial;}.cls-4{stroke:#f0f;}.cls-5,.cls-7{fill:#f0f;}.cls-6{font-size:91.71123px;}.cls-7,.cls-8{font-size:50px;}</style></defs><g id="圖層_3" data-name="圖層 3"><rect class="cls-1" width="1388" height="1020"/></g><g id="圖層_2" data-name="圖層 2"><rect class="cls-2" x="21.5" y="241.93971" width="1284" height="541.56029"/><text class="cls-3" transform="translate(981.61841 959.03534)">Sum[3:0]</text><line class="cls-2" x1="1092.5" y1="612" x2="1092.5" y2="855.82422"/><path d="M1092.5,886c-5.26855-14.199-14.25781-31.81641-23.7793-42.73682l23.7793,8.60108,23.77441-8.60108C1106.75293,854.18359,1097.76367,871.801,1092.5,886Z"/><text class="cls-3" transform="translate(752.01685 154.61035)">A[3:0]</text><line class="cls-2" x1="848.5" y1="181" x2="848.5" y2="361.82419"/><path d="M848.5,392c-5.26855-14.199-14.25781-31.81641-23.7793-42.73679l23.7793,8.601,23.77441-8.601C862.75293,360.18359,853.76367,377.801,848.5,392Z"/><text class="cls-3" transform="translate(975.62793 154.61035)">B[3:0] </text><line class="cls-2" x1="1044.5" y1="183" x2="1044.5" y2="363.82419"/><path d="M1044.5,394c-5.26855-14.199-14.25781-31.81641-23.7793-42.73679l23.7793,8.601,23.77441-8.601C1058.75293,362.18359,1049.76367,379.801,1044.5,394Z"/><text class="cls-3" transform="translate(1259.74097 154.23535)">Cin </text><polyline class="cls-4" points="799.043 611.5 799.043 687.5 674 687.5 674 287 548.319 287 548.319 359.824"/><path class="cls-5" d="M548.31915,390c-5.26855-14.199-14.25781-31.81641-23.77929-42.73679l23.77929,8.601,23.77442-8.601C562.57208,358.18359,553.58282,375.801,548.31915,390Z"/><rect class="cls-2" x="107.01686" y="395.80227" width="483.4492" height="216.17647"/><text class="cls-6" transform="translate(129.58692 528.35169)">Adder4bits</text><rect class="cls-2" x="752.99897" y="395.8027" width="483.4492" height="216.17647"/><text class="cls-6" transform="translate(775.56903 528.35212)">Adder4bits</text><text class="cls-3" transform="translate(144.01685 154.61035)">A[7:4]</text><line class="cls-2" x1="214.5" y1="183" x2="214.5" y2="363.82419"/><path d="M214.5,394c-5.26854-14.199-14.2578-31.81641-23.7793-42.73679l23.7793,8.601,23.7744-8.601C228.753,362.18359,219.76365,379.801,214.5,394Z"/><text class="cls-3" transform="translate(369.98999 154.61035)">B[7:4]</text><line class="cls-2" x1="456.5" y1="183" x2="456.5" y2="363.82419"/><path d="M456.5,394c-5.26855-14.199-14.2578-31.81641-23.7793-42.73679l23.7793,8.601,23.7744-8.601C470.753,362.18359,461.76365,379.801,456.5,394Z"/><text class="cls-3" transform="translate(376.65283 971.03534)">Sum[7:4]</text><line class="cls-2" x1="456.5" y1="617" x2="456.5" y2="860.82422"/><path d="M456.5,891c-5.26856-14.199-14.25782-31.81641-23.7793-42.73682L456.5,856.86426l23.77441-8.60108C470.75293,859.18359,461.76367,876.801,456.5,891Z"/><line class="cls-2" x1="214.5603" y1="616" x2="214.5603" y2="859.82422"/><path d="M214.5603,890c-5.26855-14.199-14.25781-31.81641-23.77929-42.73682l23.77929,8.60108,23.77442-8.60108C228.81323,858.18359,219.824,875.801,214.5603,890Z"/><text class="cls-7" transform="translate(673.68726 749.23535)">Carry</text><text class="cls-8" transform="translate(1193.68726 674.23535)">u1</text><text class="cls-8" transform="translate(513.68726 674.23535)">u2</text><text class="cls-3" transform="translate(140.62695 970.03534)">Cout</text><polyline class="cls-2" points="1185.043 364.824 1185.043 133.5 1240.5 133.5"/><path d="M1185.0426,395c5.26856-14.199,14.25769-31.81641,23.7793-42.73679l-23.7793,8.601-23.77441-8.601C1170.78955,363.18359,1179.77893,380.801,1185.0426,395Z"/></g></svg>