<svg xmlns="http://www.w3.org/2000/svg" viewBox="0 0 1928 1080"><defs><style>.cls-1,.cls-5{fill:#fff;}.cls-2{fill:none;}.cls-2,.cls-5{stroke:#000;stroke-width:5px;}.cls-3,.cls-4{font-size:99.42302px;font-family:ArialMT, Arial;}.cls-4{letter-spacing:-0.05518em;}.cls-5{stroke-miterlimit:10;}</style></defs><g id="圖層_2" data-name="圖層 2"><rect class="cls-1" x="0.5" y="0.5" width="1927" height="1079"/><path d="M1927,1V1079H1V1H1927m1-1H0V1080H1928V0Z"/></g><g id="圖層_1" data-name="圖層 1"><line class="cls-2" x1="883.70459" y1="281.15831" x2="883.70459" y2="398.65831"/><line class="cls-2" x1="924.20459" y1="281.65831" x2="924.20459" y2="398.65831"/><line class="cls-2" x1="964.70459" y1="281.65831" x2="964.70459" y2="398.65831"/><text class="cls-3" transform="translate(1442.7019 691.37607)">C</text><path id="OR_Gate" data-name="OR Gate" class="cls-2" d="M504.29609,386.60777c26.50428,39.69661,33.0982,69.78075,33.21516,102.70681.14114,39.73771-11.19383,70.645-32.48439,103.02866,82.76231-.294,209.45877-35.14334,255.58638-101.67247C713.56479,429.11869,585.73145,386.31852,504.29609,386.60777Z"/><text class="cls-3" transform="translate(336.31633 576.32498)">B</text><text class="cls-4" transform="translate(334.05901 473.32498)">A</text><line class="cls-2" x1="415.66698" y1="450.36539" x2="533.81885" y2="450.36539"/><polyline class="cls-2" points="803.667 490.365 921.819 490.365 921.819 610.365"/><line class="cls-2" x1="415.66698" y1="535.36539" x2="533.81885" y2="535.36539"/><circle class="cls-5" cx="783.3161" cy="489.89362" r="23.05511"/><path id="OR_Gate-2" data-name="OR Gate" class="cls-2" d="M1008.39593,547.60777c26.50429,39.69661,33.09821,69.78075,33.21516,102.70681.14115,39.73771-11.19382,70.645-32.48439,103.02866,82.76232-.294,209.45878-35.14334,255.58639-101.67247C1217.66464,590.11869,1089.8313,547.31852,1008.39593,547.60777Z"/><line class="cls-2" x1="919.76683" y1="611.36539" x2="1037.91869" y2="611.36539"/><line class="cls-2" x1="1307.76683" y1="651.36539" x2="1425.91869" y2="651.36539"/><line class="cls-2" x1="919.76683" y1="696.36539" x2="1037.91869" y2="696.36539"/><circle class="cls-5" cx="1287.41595" cy="650.89362" r="23.05511"/><path id="OR_Gate-3" data-name="OR Gate" class="cls-2" d="M504.29609,691.60777c26.50428,39.69661,33.0982,69.78075,33.21516,102.70681.14114,39.73771-11.19383,70.645-32.48439,103.02866,82.76231-.294,209.45877-35.14334,255.58638-101.67247C713.56479,734.11869,585.73145,691.31852,504.29609,691.60777Z"/><text class="cls-3" transform="translate(336.31633 881.32498)">B</text><text class="cls-4" transform="translate(334.05901 778.32498)">A</text><line class="cls-2" x1="415.66698" y1="755.36539" x2="533.81885" y2="755.36539"/><polyline class="cls-2" points="803.667 795.365 921.819 795.365 921.819 695.365"/><line class="cls-2" x1="415.66698" y1="840.36539" x2="533.81885" y2="840.36539"/><circle class="cls-5" cx="783.3161" cy="794.89362" r="23.05511"/><path id="OR_Gate-4" data-name="OR Gate" class="cls-2" d="M783.36,36.75047c26.50428,39.69661,33.09821,69.78075,33.21516,102.70681.14115,39.7377-11.19383,70.64505-32.48439,103.02865,82.76231-.294,209.45878-35.14334,255.58639-101.67246C992.62871,79.26139,864.79536,36.46121,783.36,36.75047Z"/><text class="cls-3" transform="translate(615.38025 228.46765)">B</text><text class="cls-4" transform="translate(613.12292 125.46765)">A</text><text class="cls-3" transform="translate(1163.6377 177.46765)">C</text><line class="cls-2" x1="694.73089" y1="102.50808" x2="812.88276" y2="102.50808"/><line class="cls-2" x1="1039.73089" y1="139.50808" x2="1157.88276" y2="139.50808"/><line class="cls-2" x1="694.73089" y1="187.50808" x2="812.88276" y2="187.50808"/></g></svg>