<svg xmlns="http://www.w3.org/2000/svg" viewBox="0 0 1634.55319 1252.08511"><defs><style>.cls-1{fill:#fff;}.cls-2{fill:#cae8f2;}.cls-3,.cls-4,.cls-8{fill:#040000;}.cls-4{font-size:50px;}.cls-4,.cls-8{font-family:ArialMT, Arial;}.cls-5{letter-spacing:-0.05518em;}.cls-6{letter-spacing:-0.11084em;}.cls-7{letter-spacing:-0.03711em;}.cls-8{font-size:40px;}.cls-9{fill:none;stroke:#040000;stroke-miterlimit:10;stroke-width:5px;}</style></defs><g id="圖層_2" data-name="圖層 2"><rect class="cls-1" width="1634.55319" height="1252.08511"/></g><g id="圖層_1" data-name="圖層 1"><path class="cls-2" d="M547.91592,336.733H839.91983a51.647,51.647,0,0,1,51.647,51.647v16.70654A51.64648,51.64648,0,0,1,839.92032,456.733H547.91641a51.64746,51.64746,0,0,1-51.64746-51.64746V388.38A51.647,51.647,0,0,1,547.91592,336.733Z"/><path class="cls-3" d="M839.91989,338.23262a50.20386,50.20386,0,0,1,50.147,50.14709v16.70587a50.20385,50.20385,0,0,1-50.147,50.147H547.91611a50.20387,50.20387,0,0,1-50.147-50.147V388.37971a50.20388,50.20388,0,0,1,50.147-50.14709H839.91989m0-3H547.91611a53.14707,53.14707,0,0,0-53.147,53.14709v16.70587a53.14706,53.14706,0,0,0,53.147,53.147H839.91989a53.147,53.147,0,0,0,53.147-53.147V388.37971a53.147,53.147,0,0,0-53.147-53.14709Z"/><path class="cls-2" d="M547.91592,74.56752H839.91983a51.647,51.647,0,0,1,51.647,51.647V142.921a51.64648,51.64648,0,0,1-51.64648,51.64648H547.91592a51.647,51.647,0,0,1-51.647-51.647V126.21449A51.647,51.647,0,0,1,547.91592,74.56752Z"/><path class="cls-3" d="M839.91989,76.06752a50.20384,50.20384,0,0,1,50.147,50.14706v16.70587a50.20383,50.20383,0,0,1-50.147,50.14707H547.91611a50.20386,50.20386,0,0,1-50.147-50.14707V126.21458a50.20386,50.20386,0,0,1,50.147-50.14706H839.91989m0-3H547.91611a53.14709,53.14709,0,0,0-53.147,53.14706v16.70587a53.147,53.147,0,0,0,53.147,53.14707H839.91989a53.147,53.147,0,0,0,53.147-53.14707V126.21458a53.14707,53.14707,0,0,0-53.147-53.14706Z"/><text class="cls-4" transform="translate(555.0018 410.06883)">C model(*.c)</text><path class="cls-2" d="M1097.56973,336.733h324.51758a51.64648,51.64648,0,0,1,51.64648,51.64648v16.707a51.64648,51.64648,0,0,1-51.64648,51.64648H1097.56973a51.64746,51.64746,0,0,1-51.64746-51.64746V388.38051A51.64746,51.64746,0,0,1,1097.56973,336.733Z"/><path class="cls-3" d="M1422.08694,338.23262a50.20387,50.20387,0,0,1,50.1471,50.14709v16.70587a50.20382,50.20382,0,0,1-50.1471,50.147H1097.56912a50.20385,50.20385,0,0,1-50.147-50.147V388.37971a50.2039,50.2039,0,0,1,50.147-50.14709h324.51782m0-3H1097.56912a53.147,53.147,0,0,0-53.147,53.14709v16.70587a53.147,53.147,0,0,0,53.147,53.147h324.51782a53.14709,53.14709,0,0,0,53.1471-53.147V388.37971a53.1471,53.1471,0,0,0-53.1471-53.14709Z"/><text class="cls-4" transform="translate(1076.17056 410.06904)">golden data(*dat)</text><path class="cls-2" d="M257.51407,690.18715h320.6001a51.64648,51.64648,0,0,1,51.64648,51.64648V760.9391a51.64746,51.64746,0,0,1-51.64746,51.64746H257.51407a51.64746,51.64746,0,0,1-51.64746-51.64746V741.83461a51.64746,51.64746,0,0,1,51.64746-51.64746Z"/><path class="cls-3" d="M578.11339,691.68684a50.20389,50.20389,0,0,1,50.14705,50.1471v19.10583a50.20389,50.20389,0,0,1-50.14705,50.1471H257.51385a50.20389,50.20389,0,0,1-50.14706-50.1471V741.83394a50.20389,50.20389,0,0,1,50.14706-50.1471H578.11339m0-3H257.51385a53.14708,53.14708,0,0,0-53.14706,53.1471v19.10583a53.14708,53.14708,0,0,0,53.14706,53.1471H578.11339a53.14707,53.14707,0,0,0,53.14705-53.1471V741.83394a53.14707,53.14707,0,0,0-53.14705-53.1471Z"/><text class="cls-4" transform="translate(228.83673 764.72297)"><tspan class="cls-5">V</tspan><tspan x="30.59082" y="0">erilog Code(*.v)</tspan></text><path class="cls-2" d="M776.62247,690.18715h320.60059a51.64648,51.64648,0,0,1,51.64648,51.64648v19.10545a51.64748,51.64748,0,0,1-51.64748,51.64748H776.62247A51.64648,51.64648,0,0,1,724.976,760.94008V741.83363a51.64648,51.64648,0,0,1,51.64648-51.64648Z"/><path class="cls-3" d="M1097.22238,691.68684a50.20386,50.20386,0,0,1,50.147,50.1471v19.10583a50.20386,50.20386,0,0,1-50.147,50.1471H776.62286a50.20391,50.20391,0,0,1-50.14706-50.1471V741.83394a50.20391,50.20391,0,0,1,50.14706-50.1471h320.59952m0-3H776.62286a53.14708,53.14708,0,0,0-53.14706,53.1471v19.10583a53.14708,53.14708,0,0,0,53.14706,53.1471h320.59952a53.14705,53.14705,0,0,0,53.147-53.1471V741.83394a53.14705,53.14705,0,0,0-53.147-53.1471Z"/><text class="cls-4" transform="translate(777.13284 764.72322)"><tspan class="cls-6">T</tspan><tspan x="25" y="0">estbench(*.v)</tspan></text><path class="cls-2" d="M533.61709,1075.11976h320.6001a51.64746,51.64746,0,0,1,51.64746,51.64746v19.10547a51.64746,51.64746,0,0,1-51.64746,51.64746H533.61709a51.64648,51.64648,0,0,1-51.64648-51.64648v-19.10742A51.64648,51.64648,0,0,1,533.61709,1075.11976Z"/><path class="cls-3" d="M854.21737,1076.62025a50.20388,50.20388,0,0,1,50.1471,50.1471v19.10583a50.20388,50.20388,0,0,1-50.1471,50.1471H533.61787a50.20385,50.20385,0,0,1-50.14706-50.1471v-19.10583a50.20385,50.20385,0,0,1,50.14706-50.1471h320.5995m0-3H533.61787a53.14711,53.14711,0,0,0-53.14706,53.1471v19.10583a53.14711,53.14711,0,0,0,53.14706,53.1471h320.5995a53.14714,53.14714,0,0,0,53.1471-53.1471v-19.10583a53.14714,53.14714,0,0,0-53.1471-53.1471Z"/><text class="cls-4" transform="translate(508.71231 1149.65639)"><tspan class="cls-7">W</tspan><tspan x="45.33691" y="0">aveform(*.vcd)</tspan></text><text class="cls-4" transform="translate(651.79434 147.90394)">spec</text><text class="cls-8" transform="translate(853.77902 505.21687)">GCC Compiler</text><text class="cls-8" transform="translate(735.60672 280.71971)">VSCode</text><text class="cls-8" transform="translate(625.17196 643.39174)">VSCode</text><text class="cls-8" transform="translate(735.78195 1028.97841)">Modelsim</text><line class="cls-9" x1="693.918" y1="193.37227" x2="693.918" y2="305.05684"/><path class="cls-3" d="M693.918,335.23262c-5.26856-14.199-14.25778-31.81641-23.7793-42.73679l23.7793,8.601,23.77441-8.601C708.171,303.41621,699.18167,321.03361,693.918,335.23262Z"/><path class="cls-9" d="M911.48936,396.73263"/><path class="cls-9" d="M1497.66276,565.20571"/><line class="cls-9" x1="893.06692" y1="397.75392" x2="1014.24624" y2="397.75392"/><path class="cls-3" d="M1044.42209,397.75392c-14.199,5.26855-31.81641,14.25781-42.73682,23.7793l8.601-23.7793-8.601-23.77441C1012.60568,383.50093,1030.22305,392.49025,1044.42209,397.75392Z"/><polyline class="cls-9" points="693.918 458.233 693.918 580.596 936.923 580.596 936.923 658.511"/><path class="cls-3" d="M936.92264,688.68684c-5.26856-14.199-14.25782-31.8164-23.7793-42.73681l23.7793,8.60107L960.697,645.95C951.17557,656.87044,942.18625,674.48787,936.92264,688.68684Z"/><polyline class="cls-9" points="693.918 580.596 417.814 580.596 417.814 658.511"/><path class="cls-3" d="M417.81361,688.68684c-5.26855-14.199-14.2578-31.8164-23.7793-42.73681l23.7793,8.60107L441.588,645.95C432.06656,656.87044,423.07726,674.48787,417.81361,688.68684Z"/><polyline class="cls-9" points="1259.828 458.233 1259.828 945.191 936.923 945.191 936.923 814.087"/><polyline class="cls-9" points="417.814 814.087 417.814 945.191 693.918 945.191 936.923 945.191"/><line class="cls-9" x1="693.918" y1="1043.44447" x2="693.918" y2="945.19154"/><path class="cls-3" d="M693.918,1073.62025c5.26855-14.199,14.25781-31.8164,23.77929-42.73681l-23.77929,8.60107-23.77439-8.60107C679.66507,1041.80385,688.65436,1059.42128,693.918,1073.62025Z"/></g></svg>