<svg xmlns="http://www.w3.org/2000/svg" viewBox="0 0 2973.95745 1743.82979"><defs><style>.cls-1{fill:#fff;}.cls-12,.cls-14,.cls-2,.cls-3,.cls-4{font-size:65.05088px;font-family:ArialMT, Arial;}.cls-2{fill:#040000;}.cls-12,.cls-3,.cls-8{fill:#ea5514;}.cls-10,.cls-14,.cls-4{fill:#1d2088;}.cls-11,.cls-15,.cls-5,.cls-7,.cls-9{fill:none;}.cls-5{stroke:#231815;}.cls-10,.cls-15,.cls-5,.cls-7,.cls-8,.cls-9{stroke-miterlimit:10;}.cls-10,.cls-5,.cls-7,.cls-8,.cls-9{stroke-width:7px;}.cls-6{fill:#231815;}.cls-7,.cls-8{stroke:#ea5514;}.cls-10,.cls-9{stroke:#1d2088;}.cls-11,.cls-15{stroke:#040000;stroke-width:5px;}.cls-12,.cls-14{letter-spacing:-0.03711em;}.cls-13{letter-spacing:0.00002em;}</style></defs><g id="圖層_2" data-name="圖層 2"><rect class="cls-1" width="2973.95745" height="1743.82979"/></g><g id="圖層_1" data-name="圖層 1"><text class="cls-2" transform="translate(68.08518 1464.48242)">in_data</text><text class="cls-2" transform="translate(1351.28208 124.73799)">out_data</text><text class="cls-3" transform="translate(1785.3552 1163.25012)">1</text><text class="cls-4" transform="translate(2594.04861 1042.66859)">0</text><text class="cls-4" transform="translate(1842.38901 1042.66859)">0</text><text class="cls-4" transform="translate(2184.68454 1042.6683)">1</text><text class="cls-4" transform="translate(1435.06748 1042.6683)">1</text><text class="cls-4" transform="translate(1042.07859 1042.6683)">1</text><text class="cls-4" transform="translate(628.46152 1042.6683)">1</text><text class="cls-3" transform="translate(1385.52536 1163.25012)">1</text><text class="cls-3" transform="translate(984.16367 1163.25012)">0</text><text class="cls-3" transform="translate(582.80198 1163.25012)">1</text><line class="cls-5" x1="298.99729" y1="1447.13154" x2="467.24924" y2="1447.13154"/><path class="cls-6" d="M509.49537,1447.13154c-19.87861,7.376-44.543,19.96094-59.83155,33.291l12.04148-33.291-12.04148-33.28418C464.9524,1427.17744,489.61676,1439.7624,509.49537,1447.13154Z"/><line class="cls-5" x1="698.71685" y1="1447.13154" x2="866.96883" y2="1447.13154"/><path class="cls-6" d="M909.21494,1447.13154c-19.8786,7.376-44.543,19.96094-59.83152,33.291l12.04148-33.291-12.04148-33.28418C864.672,1427.17744,889.33634,1439.7624,909.21494,1447.13154Z"/><line class="cls-5" x1="1100.19285" y1="1447.13154" x2="1268.44483" y2="1447.13154"/><path class="cls-6" d="M1310.691,1447.13154c-19.8786,7.376-44.543,19.96094-59.83154,33.291l12.04147-33.291-12.04147-33.28418C1266.148,1427.17744,1290.81235,1439.7624,1310.691,1447.13154Z"/><line class="cls-5" x1="1499.91245" y1="1447.13154" x2="1668.1644" y2="1447.13154"/><path class="cls-6" d="M1710.41056,1447.13154c-19.8786,7.376-44.543,19.96094-59.83155,33.291l12.04145-33.291-12.04145-33.28418C1665.86759,1427.17744,1690.532,1439.7624,1710.41056,1447.13154Z"/><line class="cls-5" x1="1903.14487" y1="1447.13154" x2="2071.39682" y2="1447.13154"/><path class="cls-6" d="M2113.64292,1447.13154c-19.87854,7.376-44.543,19.96094-59.83154,33.291l12.0415-33.291-12.0415-33.28418C2069.09995,1427.17744,2093.76438,1439.7624,2113.64292,1447.13154Z"/><line class="cls-5" x1="2304.62082" y1="1447.13154" x2="2472.87278" y2="1447.13154"/><path class="cls-6" d="M2515.11887,1447.13154c-19.87854,7.376-44.54285,19.96094-59.83142,33.291l12.04138-33.291-12.04138-33.28418C2470.576,1427.17744,2495.24033,1439.7624,2515.11887,1447.13154Z"/><rect class="cls-5" x="2115.39934" y="1353.39902" width="187.46509" height="187.46509"/><rect class="cls-5" x="2516.87534" y="1353.39902" width="187.46509" height="187.46509"/><polyline class="cls-7" points="1807.656 1353.399 1807.656 1198.468 603.228 1198.468 603.228 1353.399"/><line class="cls-7" x1="1406.17989" y1="1198.46809" x2="1406.17989" y2="1353.39902"/><line class="cls-7" x1="1004.7039" y1="1353.39902" x2="1004.7039" y2="1198.46809"/><text class="cls-2" transform="translate(1531.91672 1650.89002)">shift register store in_data up to 6 bits </text><text class="cls-2" transform="translate(1875.43534 629.77711)">if else conbinational circuit</text><rect class="cls-5" x="509.49536" y="1353.39902" width="187.46509" height="187.46509"/><rect class="cls-5" x="910.97135" y="1353.39902" width="187.46509" height="187.46509"/><rect class="cls-5" x="1312.44735" y="1353.39902" width="187.46509" height="187.46509"/><rect class="cls-5" x="1713.92335" y="1353.39902" width="187.46509" height="187.46509"/><line class="cls-8" x1="1215.31915" y1="1194.38298" x2="1215.31915" y2="927.82979"/><polyline class="cls-9" points="2209.132 1353.399 2209.132 1069.787 2610.608 1069.787 2610.608 1353.399"/><polyline class="cls-9" points="2209.132 1069.787 646.979 1069.787 646.979 1353.399"/><line class="cls-9" x1="1060.59574" y1="1353.39902" x2="1060.59574" y2="1069.78723"/><line class="cls-9" x1="1460.42553" y1="1353.39902" x2="1460.42553" y2="1069.78723"/><line class="cls-9" x1="1858.7234" y1="1353.39902" x2="1858.7234" y2="1069.78723"/><line class="cls-10" x1="1764.76596" y1="1069.78723" x2="1764.76596" y2="923.63479"/><path id="OR_Gate" data-name="OR Gate" class="cls-11" d="M1372.91718,541.86692c39.7905-26.36311,69.89788-32.85014,102.82414-32.85014,39.738,0,70.60485,11.44469,102.91262,32.85014,0-82.76283-34.39912-209.58228-100.764-255.94591C1416.17114,332.75053,1372.91718,460.431,1372.91718,541.86692Z"/><polyline class="cls-11" points="1442.092 511.897 1442.092 702.128 1215.319 702.128 1215.319 789.337"/><path class="cls-11" d="M1442.09189,702.12766"/><polyline class="cls-11" points="1764.766 789.337 1764.766 702.128 1500.255 702.128 1500.255 511.897"/><text class="cls-12" transform="translate(1028.84214 877.66416)">T<tspan class="cls-13" x="37.32129" y="0">rue</tspan></text><text class="cls-3" transform="translate(1256.49668 877.66416)">False</text><rect class="cls-7" x="982.38373" y="789.33691" width="465.87084" height="134.29787" rx="59.82388"/><text class="cls-14" transform="translate(1559.90598 877.66416)">T<tspan class="cls-13" x="37.32129" y="0">rue</tspan></text><text class="cls-4" transform="translate(1787.56052 877.66416)">False</text><rect class="cls-9" x="1513.44756" y="789.33691" width="465.87084" height="134.29787" rx="59.82388"/><line class="cls-15" x1="1477.88995" y1="285.92101" x2="1477.88995" y2="158.80851"/></g></svg>