<svg xmlns="http://www.w3.org/2000/svg" viewBox="0 0 2152.85106 2152.85106"><defs><style>.cls-1{fill:#fff;}.cls-2{fill:#95d4e7;}.cls-2,.cls-4,.cls-5,.cls-7,.cls-8{stroke:#040000;stroke-miterlimit:10;}.cls-2,.cls-4,.cls-5,.cls-7{stroke-width:8px;}.cls-3{font-size:60.52513px;font-family:ArialMT, Arial;}.cls-3,.cls-6{fill:#040000;}.cls-4{fill:#e6e863;}.cls-5{fill:#dee065;}.cls-7,.cls-8{fill:none;}.cls-8{stroke-width:7px;}</style></defs><g id="圖層_2" data-name="圖層 2"><rect class="cls-1" width="2152.85106" height="2152.85106"/></g><g id="圖層_1" data-name="圖層 1"><rect class="cls-2" x="970.24151" y="304.92503" width="235.78717" height="139.01027" rx="69.50506"/><text class="cls-3" transform="translate(1025.88118 390.57415)">S0/0</text><rect class="cls-2" x="588.86599" y="516.08039" width="235.78717" height="139.01027" rx="69.50506"/><text class="cls-3" transform="translate(644.50577 601.72832)">S1/0</text><rect class="cls-2" x="325.04809" y="777.17025" width="235.78717" height="139.01027" rx="69.50506"/><text class="cls-3" transform="translate(380.68771 862.81884)">S2/0</text><rect class="cls-2" x="442.94168" y="1125.76869" width="235.78717" height="139.01027" rx="69.50506"/><text class="cls-3" transform="translate(498.58127 1211.41772)">S3/0</text><rect class="cls-2" x="1036.98501" y="1679.25006" width="235.78717" height="139.01027" rx="69.50506"/><text class="cls-3" transform="translate(1092.62467 1764.89913)">S5/0</text><rect class="cls-4" x="1363.2669" y="1916.92364" width="235.78717" height="139.01027" rx="69.50506"/><text class="cls-3" transform="translate(1418.90637 2002.57281)">S6/1</text><rect class="cls-2" x="1463.96059" y="568.71705" width="235.78717" height="139.01027" rx="69.50506"/><text class="cls-3" transform="translate(1519.60001 654.36516)">S7/0</text><rect class="cls-2" x="706.75958" y="1425.74064" width="235.78717" height="139.01027" rx="69.50506"/><text class="cls-3" transform="translate(762.3992 1511.3897)">S4/0</text><rect class="cls-2" x="1618.29763" y="890.73761" width="235.78717" height="139.01027" rx="69.50506"/><text class="cls-3" transform="translate(1673.93716 976.38595)">S8/0</text><rect class="cls-2" x="1523.29921" y="1441.88507" width="235.78717" height="139.01027" rx="69.50506"/><text class="cls-3" transform="translate(1578.93884 1527.53417)">S9/0</text><rect class="cls-5" x="1064.8963" y="1142.63819" width="235.78717" height="139.01027" rx="69.50506"/><text class="cls-3" transform="translate(1103.70548 1228.2868)">S10/1</text><text class="cls-3" transform="translate(1463.96027 374.43047)">1</text><text class="cls-3" transform="translate(1270.20331 742.03118)">1</text><text class="cls-3" transform="translate(1038.88425 872.75518)">1</text><text class="cls-3" transform="translate(1382.03314 1096.41411)">1</text><text class="cls-3" transform="translate(1345.26714 1431.90404)">1</text><text class="cls-3" transform="translate(533.3522 1441.88476)">1</text><text class="cls-3" transform="translate(812.16086 1736.01244)">1</text><text class="cls-3" transform="translate(1154.87862 2002.57308)">1</text><text class="cls-3" transform="translate(1994.35342 1591.32836)">1</text><text class="cls-3" transform="translate(728.65213 806.43047)">1</text><text class="cls-3" transform="translate(1759.08652 777.17046)">1</text><text class="cls-3" transform="translate(2051.17172 976.38634)">1</text><text class="cls-3" transform="translate(47.43643 885.20489)">0</text><text class="cls-3" transform="translate(726.10971 366.96563)">0</text><text class="cls-3" transform="translate(439.63516 431.1795)">0</text><text class="cls-3" transform="translate(364.57144 1048.54116)">0</text><text class="cls-3" transform="translate(1131.99789 535.73369)">0</text><text class="cls-3" transform="translate(883.99149 1167.35506)">0</text><text class="cls-3" transform="translate(1728.07671 1281.64837)">0</text><text class="cls-3" transform="translate(1363.26708 1604.49946)">0</text><text class="cls-3" transform="translate(1718.79057 1818.26021)">0</text><text class="cls-3" transform="translate(718.54465 1355.06689)">0</text><text class="cls-3" transform="translate(1020.85716 131.91863)">reset</text><line class="cls-6" x1="1088.13509" y1="151.56032" x2="1088.13509" y2="304.92503"/><line class="cls-7" x1="1088.1351" y1="151.56032" x2="1088.1351" y2="271.12813"/><path class="cls-6" d="M1088.1351,304.925c-5.90075-15.90287-15.96875-35.63436-26.63281-47.8652l26.63281,9.63316,26.62732-9.63316C1104.09842,269.29066,1094.03037,289.02215,1088.1351,304.925Z"/><path class="cls-8" d="M1887.336,1006.35906a78.57966,78.57966,0,0,0,48.29187,16.22913c41.32129,0,74.819-30.75409,74.81909-68.6912.00012-37.94293-33.27283-68.58273-74.60022-68.69137a80.8245,80.8245,0,0,0-23.85376,3.49927"/><path class="cls-6" d="M1885.87235,902.60113c10.058-10.91431,21.44714-26.5979,26.751-39.76874l3.061,24.59149,18.082,16.93893C1919.99576,900.90273,1900.61307,900.885,1885.87235,902.60113Z"/><path class="cls-8" d="M610.4285,463.58888a80.95989,80.95989,0,0,0-13.60044-17.34931c-29.64883-28.78195-75.1054-30.04771-101.53019-2.82721C468.869,470.637,471.40111,515.79754,500.97868,544.6617a78.437,78.437,0,0,0,47.97423,22.32752"/><path class="cls-6" d="M620.17413,491.52144c.02176-14.842,2.30314-34.09,7.34787-47.36222l-18.93936,15.9816-24.77621.16624C596.26764,467.11286,610.51376,480.25584,620.17413,491.52144Z"/><path class="cls-7" d="M1270.203,374.43017s165.31372-41.38089,262.53211,131.13918"/><path class="cls-6" d="M1547.99027,535.73354c-12.51477-11.44993-30.4856-24.40154-45.55982-30.40881l28.0918-3.59942,19.2843-20.73475C1545.90884,496.74248,1545.96829,518.89407,1547.99027,535.73354Z"/><path class="cls-7" d="M1676.72049,719.56331s44.69128,49.37516,56.58972,119.51444"/><path class="cls-6" d="M1736.19119,872.75481c-7.361-15.28189-19.22876-33.9862-30.98913-45.167l27.4165,7.10226,25.6106-12.07928C1748.75479,835.78466,1740.57462,856.37063,1736.19119,872.75481Z"/><path class="cls-8" d="M923.47958,370.08086s-195.75946-29.95772-223.90631,95.92008"/><path class="cls-6" d="M696.24027,495.39311c-3.40628-14.44588-10.01746-32.66622-17.9563-44.43806l22.08517,11.24081,24.16113-5.48895C713.94971,466.17541,703.07663,482.22115,696.24027,495.39311Z"/><path class="cls-8" d="M696.24027,680.75481s30.9118,120.237-78.77616,158.94031"/><path class="cls-6" d="M588.866,847.22051c12.07611-8.62866,26.4299-21.65393,34.3132-33.463l-2.02881,24.69809,14.23905,20.27652C622.61652,852.531,603.64642,848.55285,588.866,847.22051Z"/><path class="cls-8" d="M439.63532,941.18035s-7.90256,97.57544,6.94307,145.46521"/><path class="cls-6" d="M463.05008,1111.22289c-11.811-8.9881-28.49527-18.85339-42.10617-22.8963l24.19514-5.35791,15.16513-19.59351C458.1532,1077.4099,459.95659,1096.70855,463.05008,1111.22289Z"/><path class="cls-8" d="M824.65317,1604.49944S897.71048,1716.5396,969.55,1743.1397"/><path class="cls-6" d="M998.54343,1748.75518c-14.67975,2.189-33.38819,7.25659-45.7815,14.18542l13.04456-21.07006-3.45361-24.53492C970.90543,1728.66936,985.98789,1740.84344,998.54343,1748.75518Z"/><path class="cls-8" d="M1154.87857,1857.26543s52.08557,100.30042,120.92224,124.12976"/><path class="cls-6" d="M1304.92642,1986.42876c-14.63281,2.4834-33.23565,7.926-45.48718,15.10254l12.61853-21.328-3.94592-24.46057C1276.89041,1966.9024,1292.21445,1978.77093,1304.92642,1986.42876Z"/><path class="cls-8" d="M1641.19278,1986.42876s75.10181-88.97827,23.17493-314.92187"/><path class="cls-6" d="M1657.26688,1642.79742c8.3081,12.2987,20.95153,26.99,32.54931,35.181l-24.63623-2.67737-20.64392,13.70105C1651.07083,1676.39666,1655.54642,1657.53765,1657.26688,1642.79742Z"/><line class="cls-8" x1="1304.92642" y1="1697.94634" x2="1480.55679" y2="1595.76653"/><path class="cls-6" d="M1506.118,1580.89532c-9.43115,11.46032-19.92432,27.75708-24.4823,41.20422l-4.43323-24.38147-19.00207-15.8999C1472.143,1584.50176,1491.49637,1583.43413,1506.118,1580.89532Z"/><path class="cls-8" d="M1736.19119,1064.75481s-37.26526,210.89167-82.398,318.4386"/><path class="cls-6" d="M1641.19278,1409.94628c1.19605-14.79376.50159-34.164-3.43726-47.80536l17.56434,17.48163,24.67907,2.19842C1667.02127,1387.58147,1651.7449,1399.51128,1641.19278,1409.94628Z"/><line class="cls-8" x1="1493.86258" y1="1441.88506" x2="1328.2764" y2="1313.19921"/><path class="cls-6" d="M1304.92642,1295.05266c14.15552,4.462,33.19361,8.10047,47.36963,7.29987l-20.95544,13.22809-7.64148,23.56891C1320.97476,1325.21477,1312.7482,1307.66442,1304.92642,1295.05266Z"/><line class="cls-8" x1="1019.47342" y1="1212.1433" x2="755.6333" y2="1196.97155"/><path class="cls-6" d="M726.1098,1195.27379c14.18848-4.35577,31.93079-12.15954,43.15082-20.86084l-9.753,22.78138,7.07758,23.74438C756.43655,1211.00866,739.70572,1201.22253,726.1098,1195.27379Z"/><line class="cls-8" x1="629.86258" y1="872.75481" x2="1552.25662" y2="951.38497"/><path class="cls-6" d="M1581.722,953.89675c-14.30322,3.96262-32.25415,11.2738-43.71008,19.66214l10.37793-22.50354-6.41955-23.93066C1551.841,937.331,1568.29544,947.57513,1581.722,953.89675Z"/><path class="cls-8" d="M692.19238,1419.21587s10.95948-65.16968-35.65789-110.43841"/><path class="cls-6" d="M632.95834,1290.918c14.15464,4.4646,33.19208,8.10669,47.36829,7.30878l-20.95792,13.22412-7.64593,23.5675C649.001,1321.08312,640.7778,1303.53124,632.95834,1290.918Z"/><path class="cls-8" d="M577.2124,1329.697s3.59644,65.98688,59.00513,99.93268"/><path class="cls-6" d="M663.13583,1441.88506c-14.78909-1.25238-34.16183-.63165-47.81811,3.25519l17.54837-17.49762,2.29242-24.67047C640.86951,1415.97155,652.74109,1431.29333,663.13583,1441.88506Z"/><path class="cls-8" d="M1581.722,1385.791s-124.40661-750.6917-691.48223-774.89057"/><path class="cls-6" d="M860.67111,610.3039c14.03845-4.81737,31.51618-13.197,42.44574-22.26049l-9.00293,23.08807,7.85,23.5003C891.49606,625.03886,874.45425,615.80494,860.67111,610.3039Z"/><line class="cls-8" x1="1434.62857" y1="585.58552" x2="886.94412" y2="547.97246"/><path class="cls-6" d="M857.44138,545.94631c14.23608-4.19766,32.06414-11.8035,43.38031-20.3794l-10.00592,22.67144L897.62869,572.06C887.59116,562.01768,870.97025,552.04595,857.44138,545.94631Z"/><path class="cls-8" d="M383.47088,1211.41753s-594.30175-353.4953,128.44485-599.67042"/><path class="cls-6" d="M539.99024,602.45394c-11.56786,9.29895-25.16063,23.11653-32.36226,35.35329l.62631-24.77336-15.365-19.43726C505.99307,599.06406,525.15807,601.96113,539.99024,602.45394Z"/><line class="cls-8" x1="1321.59451" y1="1152.58459" x2="1571.64334" y2="1051.34246"/><path class="cls-6" d="M1599.05411,1040.24419c-10.96021,10.008-23.65711,24.653-30.07495,37.31842l-.93286-24.76367-16.55689-18.43256C1564.911,1038.999,1584.22025,1040.68505,1599.05411,1040.24419Z"/><path class="cls-8" d="M1682.66409,2002.57281s505.95191-341.61622,129.80689-895.196"/><path class="cls-6" d="M1795.53006,1083.13781c12.19324,8.46228,29.29358,17.58746,43.06848,21.03039l-23.93738,6.41236-14.29248,20.23883C1801.903,1116.70391,1799.25613,1097.5028,1795.53006,1083.13781Z"/></g></svg>