<svg xmlns="http://www.w3.org/2000/svg" viewBox="0 0 4668 4926"><defs><style>.cls-1{fill:#fff;}.cls-2{fill:lime;}.cls-10,.cls-13,.cls-14,.cls-15,.cls-2,.cls-5,.cls-7,.cls-9{stroke:#000;}.cls-10,.cls-12,.cls-13,.cls-14,.cls-15,.cls-2,.cls-5,.cls-7,.cls-9{stroke-miterlimit:10;}.cls-10,.cls-12,.cls-2,.cls-5,.cls-7,.cls-9{stroke-width:10px;}.cls-3{font-size:120.37634px;}.cls-3,.cls-6,.cls-8{font-family:ArialMT, Arial;}.cls-4{letter-spacing:-0.03711em;}.cls-5{fill:#94ffbb;}.cls-6{font-size:120px;}.cls-13,.cls-14,.cls-15,.cls-7{fill:none;}.cls-8{font-size:70px;}.cls-9{fill:#ff0;}.cls-10,.cls-12{fill:red;}.cls-11{letter-spacing:-0.09783em;}.cls-12{stroke:red;opacity:0.7;}.cls-13,.cls-14,.cls-15{stroke-width:12px;}.cls-14{stroke-dasharray:50.24192 50.24192;}.cls-15{stroke-dasharray:48.96 48.96;}</style></defs><g id="圖層_1" data-name="圖層 1"><rect class="cls-1" width="4668" height="4926"/></g><g id="圖層_2" data-name="圖層 2"><rect class="cls-2" x="1828.88684" y="622.82288" width="673.53796" height="289.50511" rx="144.75241"/><text class="cls-3" transform="translate(1938.09863 799.68262)">S_green</text><text class="cls-3" transform="translate(1641.22998 3491.68262)">always@(posedge clock)</text><text class="cls-3" transform="translate(235.2301 3868.68262)">clk</text><text class="cls-3" transform="translate(1972.22998 3010.68262)">False</text><text class="cls-3" transform="translate(368.22998 1527.68262)">False</text><text class="cls-3" transform="translate(4076.22998 1822.68262)">False</text><text class="cls-3" transform="translate(3562.23022 2179.68262)"><tspan class="cls-4">T</tspan><tspan x="69.06348" y="0">rue</tspan></text><text class="cls-3" transform="translate(1541.23022 2772.68262)"><tspan class="cls-4">T</tspan><tspan x="69.06348" y="0">rue</tspan></text><text class="cls-3" transform="translate(1131.23022 1087.68262)"><tspan class="cls-4">T</tspan><tspan x="69.06348" y="0">rue</tspan></text><rect class="cls-5" x="3000" y="1457.82464" width="952" height="389.08053"/><text class="cls-3" transform="translate(3039.47876 1634.29456)">branch condition<tspan x="145.73877" y="144.45166">set == 1&apos;b1</tspan></text><rect class="cls-5" x="770" y="1457.82465" width="952" height="389.08053"/><text class="cls-3" transform="translate(809.47876 1634.29456)">branch condition<tspan x="78.79102" y="144.45166">count == 5&apos;d7</tspan></text><rect class="cls-5" x="1822" y="2356.03517" width="952" height="389.08053"/><text class="cls-3" transform="translate(1861.47876 2510.45703)">branch condition<tspan x="78.79102" y="144.45166">count == 5&apos;d3</tspan></text><text class="cls-6" transform="translate(2032.26685 236.74414)">reset</text><line x1="2165.66073" y1="275.68799" x2="2165.66073" y2="559.02133"/><line class="cls-7" x1="2165.66077" y1="275.68799" x2="2165.66077" y2="498.66972"/><path d="M2165.66077,559.02133c-10.53711-28.398-28.51563-63.63281-47.5586-85.4736l47.5586,17.2021,47.5487-17.2021C2194.16663,495.38852,2176.188,530.62332,2165.66077,559.02133Z"/><text class="cls-8" transform="translate(1951.7251 1040.21289)"><tspan xml:space="preserve">green  = 1&apos;b1;</tspan><tspan x="0" y="84">yellow = 1&apos;b0;</tspan><tspan x="0" y="168" xml:space="preserve">red      = 1&apos;b0;</tspan></text><rect class="cls-9" x="3138.88684" y="2424.82288" width="673.53796" height="289.50511" rx="144.75241"/><text class="cls-3" transform="translate(3234.78564 2601.68262)">S_yellow</text><text class="cls-8" transform="translate(3261.72559 2842.21289)"><tspan xml:space="preserve">green  = 1&apos;b0;</tspan><tspan x="0" y="84">yellow = 1&apos;b1;</tspan><tspan x="0" y="168" xml:space="preserve">red      = 1&apos;b0;</tspan></text><rect class="cls-10" x="830.88678" y="2405.82288" width="673.53796" height="289.50511" rx="144.75241"/><text class="cls-3" transform="translate(1007.04614 2582.68262)">S_red</text><text class="cls-8" transform="translate(953.7251 2823.21289)"><tspan xml:space="preserve">green  = 1&apos;b0;</tspan><tspan x="0" y="84">yellow = 1&apos;b0;</tspan><tspan x="0" y="168" xml:space="preserve">red      = 1&apos;b1;</tspan></text><text class="cls-3" transform="translate(1639.16382 4237.68262)">if(state != next_state)<tspan class="cls-11" x="0" y="144.45166" xml:space="preserve">			</tspan><tspan x="65.00342" y="144.45166" xml:space="preserve">    count &lt;= 5&apos;d0;</tspan><tspan class="cls-11" x="0" y="288.90332" xml:space="preserve">		</tspan><tspan x="43.33545" y="288.90332">else</tspan><tspan class="cls-11" x="0" y="433.35449" xml:space="preserve">			</tspan><tspan x="65.00342" y="433.35449" xml:space="preserve">    count &lt;= count + 5&apos;d1;</tspan></text><polyline class="cls-7" points="460 3955 748.149 3955.005 748.149 3668.681 1109 3668.681 1109 3955.005 1466.23 3955.005 1466.23 3669 1829 3669 1829 3955.005 2189.17 3955.005 2189.17 3668.681 2550 3668.681 2550 3953.683 2907.128 3953.683 2907.128 3668.681 3265.128 3668.681 3265.128 3955.005 3620.532 3955.005 3620.532 3668.681 3986.66 3668.681 3986.66 3955.005 4275 3955"/><rect class="cls-12" x="1415" y="3602" width="122" height="420"/><rect class="cls-12" x="2866" y="3586" width="122" height="420"/><rect class="cls-12" x="3565" y="3586" width="122" height="420"/><rect class="cls-12" x="2134" y="3586" width="122" height="420"/><rect class="cls-12" x="698" y="3586" width="122" height="420"/><line x1="194" y1="3459" x2="1600.53191" y2="3459"/><line class="cls-13" x1="194" y1="3459" x2="219" y2="3459"/><line class="cls-14" x1="269.24193" y1="3459" x2="1550.41101" y2="3459"/><line class="cls-13" x1="1575.53186" y1="3459" x2="1600.53186" y2="3459"/><line x1="3001" y1="3459" x2="4275" y2="3459"/><line class="cls-13" x1="3001" y1="3459" x2="3026" y2="3459"/><line class="cls-15" x1="3074.95996" y1="3459" x2="4225.52002" y2="3459"/><line class="cls-13" x1="4250" y1="3459" x2="4275" y2="3459"/><line class="cls-7" x1="2531" y1="874" x2="3013.19922" y2="1356.1991"/><path d="M3055.87427,1398.87415c-27.5315-12.62952-65.15894-24.83155-94.06812-26.80994l45.79273-21.46533,21.45849-45.78577C3031.03564,1333.72229,3043.23755,1371.34985,3055.87427,1398.87415Z"/><line class="cls-7" x1="3476" y1="1900.72339" x2="3476" y2="2315.26538"/><path d="M3476,2375.61694c-10.53711-28.398-28.51562-63.63269-47.55859-85.47351L3476,2307.34558l47.54883-17.20215C3504.50586,2311.98425,3486.52734,2347.219,3476,2375.61694Z"/><line class="cls-7" x1="3094.72339" y1="2569.57544" x2="2868.60693" y2="2569.57544"/><path d="M2808.25537,2569.57544c28.398-10.53711,63.63281-28.51563,85.47363-47.55859l-17.20214,47.55859,17.20214,47.54883C2871.88818,2598.0813,2836.65332,2580.10278,2808.25537,2569.57544Z"/><line class="cls-7" x1="1780.34045" y1="2568.35889" x2="1601.71326" y2="2568.35889"/><path d="M1541.36169,2568.35889c28.398-10.53711,63.63282-28.51563,85.47364-47.5586l-17.20215,47.5586,17.20215,47.54882C1604.99451,2596.86475,1569.75964,2578.88623,1541.36169,2568.35889Z"/><line class="cls-7" x1="1167.65576" y1="2341.91479" x2="1167.65576" y2="1961.07495"/><path d="M1167.65576,1900.72339c10.53711,28.39807,28.51563,63.63281,47.5586,85.47363l-47.5586-17.20215-47.54883,17.20215C1139.14984,1964.3562,1157.12848,1929.12146,1167.65576,1900.72339Z"/><line class="cls-7" x1="1167.65576" y1="1398.87415" x2="1670.78137" y2="895.74847"/><path d="M1713.45642,853.07349c-12.62952,27.53125-24.83154,65.15875-26.80994,94.06793l-21.46533-45.79273-45.78576-21.45831C1648.30457,877.91193,1685.93213,865.71,1713.45642,853.07349Z"/><polyline class="cls-7" points="4042.468 1652.365 4230.383 1652.365 4230.383 767.575 2693.352 767.575"/><path d="M2633,767.57544c28.398-10.53711,63.63281-28.5156,85.47363-47.55859l-17.20215,47.55859,17.20215,47.54877C2696.63281,796.08136,2661.398,778.10272,2633,767.57544Z"/><polyline class="cls-7" points="2298 2856.912 2298 3241.66 3476 3241.66 3476 3154.947"/><path d="M3476,3094.5957c10.53711,28.398,28.51562,63.63282,47.55859,85.47364L3476,3162.86719l-47.54883,17.20215C3447.49414,3158.22852,3465.47266,3122.99365,3476,3094.5957Z"/><polyline class="cls-7" points="643.66 1652.365 427.149 1652.365 427.149 2569.575 583.308 2569.575"/><path d="M643.65958,2569.57544c-28.398,10.53711-63.63281,28.51562-85.47361,47.55859l17.20211-47.55859L558.186,2522.02661C580.02677,2541.06958,615.26158,2559.0481,643.65958,2569.57544Z"/></g></svg>