<svg xmlns="http://www.w3.org/2000/svg" viewBox="0 0 1390.97872 385.02128"><defs><style>.cls-1{fill:#fff;}.cls-2{fill:none;stroke:#231815;stroke-miterlimit:10;stroke-width:5px;}.cls-3{font-size:41px;font-family:ArialMT, Arial;}.cls-3,.cls-5{fill:#231815;}.cls-4{letter-spacing:-0.03711em;}</style></defs><g id="圖層_2" data-name="圖層 2"><rect class="cls-1" width="1390.97872" height="385.02128"/></g><g id="圖層_1" data-name="圖層 1"><rect class="cls-2" x="557.02519" y="125.4679" width="245.61702" height="130.7234"/><text class="cls-3" transform="translate(639.55537 201.7654)">SQ<tspan class="cls-4" x="59.2373" y="0">L</tspan></text><text class="cls-3" transform="translate(383.19623 155.80795)">clk</text><line class="cls-2" x1="456.58823" y1="143.19124" x2="535.90213" y2="143.19124"/><path class="cls-5" d="M557.02519,143.19124c-9.9393,3.688-22.27148,9.98044-29.91576,16.64551l6.02073-16.64551-6.02073-16.64209C534.75371,133.21416,547.08589,139.50667,557.02519,143.19124Z"/><text class="cls-3" transform="translate(385.47845 203.44632)">rst</text><text class="cls-3" transform="translate(923.32048 203.44632)">out_data</text><line class="cls-2" x1="456.58823" y1="190.82961" x2="535.90213" y2="190.82961"/><path class="cls-5" d="M557.02519,190.82961c-9.9393,3.688-22.27148,9.98046-29.91576,16.6455l6.02073-16.6455-6.02073-16.64209C534.75371,180.85252,547.08589,187.145,557.02519,190.82961Z"/><line class="cls-2" x1="802.64221" y1="190.82961" x2="881.95611" y2="190.82961"/><path class="cls-5" d="M903.07916,190.82961c-9.9393,3.688-22.27148,9.98046-29.91574,16.6455l6.02072-16.6455-6.02072-16.64209C880.80768,180.85252,893.13986,187.145,903.07916,190.82961Z"/><text class="cls-3" transform="translate(308.06241 251.08469)">in_data</text><line class="cls-2" x1="456.58823" y1="238.46797" x2="535.90213" y2="238.46797"/><path class="cls-5" d="M557.02519,238.468c-9.9393,3.688-22.27148,9.98047-29.91576,16.64551l6.02073-16.64551-6.02073-16.64209C534.75371,228.49092,547.08589,234.78343,557.02519,238.468Z"/></g></svg>