<svg xmlns="http://www.w3.org/2000/svg" viewBox="0 0 3178.21277 1421.61702"><defs><style>.cls-1{fill:#fff;}.cls-2{font-size:65.05088px;font-family:ArialMT, Arial;}.cls-2,.cls-5{fill:#040000;}.cls-3,.cls-6,.cls-7,.cls-8{fill:none;}.cls-3,.cls-6,.cls-7{stroke:#040000;}.cls-3,.cls-4,.cls-6,.cls-7,.cls-8{stroke-miterlimit:10;}.cls-3,.cls-4{stroke-width:10px;}.cls-4{fill:#e7211a;stroke:#e7211a;opacity:0.7;}.cls-6,.cls-7{stroke-width:12px;}.cls-7{stroke-dasharray:47.24786 47.24786;}.cls-8{stroke:#231815;stroke-width:7px;}.cls-9{fill:#231815;}</style></defs><g id="圖層_2" data-name="圖層 2"><rect class="cls-1" width="3178.21277" height="1421.61702"/></g><g id="圖層_1" data-name="圖層 1"><text class="cls-2" transform="translate(2309.56784 1053.5354)">state &lt;= S0;</text><text class="cls-2" transform="translate(1124.76535 781.73169)">always@(posedge clk or posedge rst)</text><text class="cls-2" transform="translate(315.74423 411.72021)">in_data</text><text class="cls-2" transform="translate(821.96957 411.71973)">comb. ckt</text><text class="cls-2" transform="translate(2731.83506 411.71948)">out_data</text><text class="cls-2" transform="translate(1567.2922 124.91431)">clk</text><text class="cls-2" transform="translate(1412.30941 124.91382)">rst</text><text class="cls-2" transform="translate(632.56503 994.96606)">rst</text><text class="cls-2" transform="translate(636.87265 1245.24829)">clk</text><text class="cls-2" transform="translate(2221.52932 1298.70312)">state &lt;= next_state;</text><polyline class="cls-3" points="758.337 1058.125 915.717 1058.125 915.717 903.979 925.549 903.979 1458.679 903.979 1458.679 1058.125 2131.483 1058.125"/><polyline class="cls-3" points="758.337 1291.894 914.052 1291.897 914.052 1137.168 1109.054 1137.168 1109.054 1291.897 1302.1 1291.897 1302.1 1137.341 1498.139 1137.341 1498.139 1291.897 1692.774 1291.897 1692.774 1137.168 1887.765 1137.168 1887.765 1291.182 2080.755 1291.182"/><rect class="cls-4" x="881.5474" y="865.52166" width="65.9283" height="226.96627"/><rect class="cls-4" x="1274.41522" y="1101.13427" width="65.9283" height="226.96627"/><rect class="cls-4" x="1658.32409" y="1092.48793" width="65.9283" height="226.96627"/><line class="cls-5" x1="2235.76769" y1="770.00087" x2="2994.48557" y2="770.00087"/><line class="cls-6" x1="2235.76767" y1="770.00086" x2="2260.76767" y2="770.00086"/><line class="cls-7" x1="2308.01559" y1="770.00086" x2="2945.86166" y2="770.00086"/><line class="cls-6" x1="2969.48556" y1="770.00086" x2="2994.48556" y2="770.00086"/><line class="cls-5" x1="352.9445" y1="770.00087" x2="1111.66239" y2="770.00087"/><line class="cls-6" x1="352.94449" y1="770.00086" x2="377.94449" y2="770.00086"/><line class="cls-7" x1="425.19235" y1="770.00086" x2="1063.03846" y2="770.00086"/><line class="cls-6" x1="1086.66239" y1="770.00086" x2="1111.66239" y2="770.00086"/><rect class="cls-8" x="700.38042" y="220.39778" width="1894.87779" height="460.53453"/><rect class="cls-8" x="788.9171" y="299.39044" width="335.84836" height="189.95745"/><text class="cls-2" transform="translate(2214.2568 411.71924)">comb. ckt</text><rect class="cls-8" x="2181.20431" y="302.32391" width="335.84836" height="189.95745"/><text class="cls-2" transform="translate(1408.02133 372.68896)">memory<tspan x="0" y="78.06152">element</tspan></text><text class="cls-2" transform="translate(1171.86825 368.07715)">next</text><text class="cls-2" transform="translate(1160.59311 464.05029)">state</text><text class="cls-2" transform="translate(1738.94101 368.07715)">current state</text><rect class="cls-8" x="1349.72782" y="299.39044" width="335.84836" height="189.95745"/><line class="cls-8" x1="578.41903" y1="394.36927" x2="759.34481" y2="394.36927"/><path class="cls-9" d="M788.91711,394.36927c-13.915,5.16308-31.18008,13.97265-41.88208,23.30371l8.429-23.30371-8.429-23.29908C757.737,380.40125,775.00207,389.21082,788.91711,394.36927Z"/><line class="cls-8" x1="1124.76546" y1="394.36927" x2="1320.15553" y2="394.36927"/><path class="cls-9" d="M1349.72783,394.36927c-13.915,5.16308-31.18009,13.97265-41.88207,23.30371l8.429-23.30371-8.429-23.29908C1318.54774,380.40125,1335.8128,389.21082,1349.72783,394.36927Z"/><line class="cls-8" x1="1685.5762" y1="394.36927" x2="2151.63205" y2="394.36927"/><path class="cls-9" d="M2181.20431,394.36927c-13.915,5.16308-31.18,13.97265-41.88208,23.30371l8.429-23.30371-8.429-23.29908C2150.02426,380.40125,2167.28927,389.21082,2181.20431,394.36927Z"/><line class="cls-8" x1="2517.0527" y1="394.36927" x2="2668.23239" y2="394.36927"/><path class="cls-9" d="M2697.80478,394.36927c-13.915,5.16308-31.18018,13.97265-41.88208,23.30371l8.42895-23.30371-8.42895-23.29908C2666.6246,380.40125,2683.88974,389.21082,2697.80478,394.36927Z"/><line class="cls-8" x1="1447.76217" y1="141.40516" x2="1447.76217" y2="269.81824"/><path class="cls-9" d="M1447.76217,299.39051c-5.16317-13.915-13.97265-31.18018-23.30371-41.88208l23.30371,8.429,23.29892-8.429C1461.73007,268.21033,1452.92056,285.47547,1447.76217,299.39051Z"/><line class="cls-8" x1="1602.99622" y1="141.40516" x2="1602.99622" y2="269.81824"/><path class="cls-9" d="M1602.99622,299.39051c-5.16318-13.915-13.97266-31.18018-23.30372-41.88208l23.30372,8.429,23.29892-8.429C1616.96411,268.21033,1608.1546,285.47547,1602.99622,299.39051Z"/><polyline class="cls-8" points="1933.39 404.175 1933.39 594.852 955.748 594.852 955.748 518.92"/><path class="cls-9" d="M955.74765,489.34778c5.16317,13.915,13.97264,31.18018,23.30371,41.88208l-23.30371-8.42895-23.29891,8.42895C941.77975,520.528,950.58928,503.26282,955.74765,489.34778Z"/></g></svg>